<svg xmlns="http://www.w3.org/2000/svg" viewBox="0 0 193.08 210"><defs><style>.cls-1{fill:#e74a23;}.cls-2{fill:#175d9d;}.cls-3{fill:#f4f7fa;}.cls-4{fill:#f39638;}</style></defs><title>t-benefits</title><g id="Warstwa_2" data-name="Warstwa 2"><g id="page_1_-home" data-name="page 1 -home"><g id="str_1" data-name="str 1"><g id="ikony"><rect class="cls-1" x="74.17" y="60.4" width="44.74" height="146.39"/><path class="cls-2" d="M122.12,210H71V57.18h51.17Zm-44.74-6.44h38.3v-140H77.39Z"/><rect class="cls-3" x="36.22" y="124.09" width="120.64" height="18.99" transform="translate(230.13 37.05) rotate(90)"/><polygon class="cls-3" points="96.54 7.27 111.5 37.59 144.96 42.45 120.75 66.05 126.47 99.38 96.54 83.64 66.61 99.38 72.33 66.05 48.12 42.45 81.58 37.59 96.54 7.27"/><path class="cls-2" d="M62.34,105.26l6.53-38.08L41.2,40.2l38.24-5.56L96.54,0l17.1,34.65,38.23,5.56-27.67,27,6.53,38.08-34.2-18ZM96.54,80l25.65,13.49-4.9-28.57L138,44.7l-28.68-4.17-12.83-26-12.83,26L55,44.7,75.78,64.93l-4.9,28.57Z"/><polygon class="cls-4" points="86.16 61.56 75.78 51.44 90.12 49.36 96.54 36.35 102.95 49.36 117.3 51.44 106.92 61.56 109.37 75.85 96.54 69.1 83.7 75.85 86.16 61.56"/><line class="cls-3" x1="93.32" y1="138.18" x2="99.76" y2="138.18"/><rect class="cls-2" x="93.32" y="134.97" width="6.44" height="6.44"/><line class="cls-3" x1="93.32" y1="117.5" x2="99.76" y2="117.5"/><rect class="cls-2" x="93.32" y="114.29" width="6.44" height="6.44"/><line class="cls-3" x1="93.32" y1="158.86" x2="99.76" y2="158.86"/><rect class="cls-2" x="93.32" y="155.64" width="6.44" height="6.44"/><line class="cls-3" x1="93.32" y1="179.54" x2="99.76" y2="179.54"/><rect class="cls-2" x="93.32" y="176.32" width="6.44" height="6.44"/><rect class="cls-1" x="145.12" y="118.66" width="44.74" height="88.13"/><path class="cls-2" d="M193.08,210H141.9V115.44h51.17Zm-44.74-6.44h38.3V121.87h-38.3Z"/><rect class="cls-3" x="136.3" y="153.22" width="62.38" height="18.99" transform="translate(330.21 -4.77) rotate(90)"/><line class="cls-3" x1="164.27" y1="145.9" x2="170.71" y2="145.9"/><rect class="cls-2" x="164.27" y="142.68" width="6.44" height="6.44"/><line class="cls-3" x1="164.27" y1="162.72" x2="170.71" y2="162.72"/><rect class="cls-2" x="164.27" y="159.5" width="6.44" height="6.44"/><line class="cls-3" x1="164.27" y1="179.54" x2="170.71" y2="179.54"/><rect class="cls-2" x="164.27" y="176.32" width="6.44" height="6.44"/><rect class="cls-1" x="3.22" y="118.66" width="44.74" height="88.13"/><path class="cls-2" d="M51.17,210H0V115.44H51.17ZM6.44,203.56h38.3V121.87H6.44Z"/><rect class="cls-3" x="-5.6" y="153.22" width="62.38" height="18.99" transform="translate(188.31 137.13) rotate(90)"/><line class="cls-3" x1="22.37" y1="145.9" x2="28.8" y2="145.9"/><rect class="cls-2" x="22.37" y="142.68" width="6.44" height="6.44"/><line class="cls-3" x1="22.37" y1="162.72" x2="28.8" y2="162.72"/><rect class="cls-2" x="22.37" y="159.5" width="6.44" height="6.44"/><line class="cls-3" x1="22.37" y1="179.54" x2="28.8" y2="179.54"/><rect class="cls-2" x="22.37" y="176.32" width="6.44" height="6.44"/></g></g></g></g></svg>