<svg xmlns="http://www.w3.org/2000/svg" viewBox="0 0 146.76 146.67"><title>Zasób 1</title><path d="M73.38,25.68h0C53.95,25.68,38.2,56.83,38.2,73h0c0,16.22,15.75,29.37,35.18,29.37h0c19.43,0,35.18-13.15,35.18-29.37h0C108.56,56.83,92.81,25.68,73.38,25.68Z" fill="#fff"/><path d="M73.38,104.71c-20.66,0-37.47-14.2-37.47-31.66,0-16.56,16.2-49.66,37.47-49.66S110.85,56.49,110.85,73C110.85,90.5,94,104.71,73.38,104.71Zm0-76.73C55.38,28,40.49,57.82,40.49,73c0,14.93,14.75,27.07,32.89,27.07S106.27,88,106.27,73C106.26,57.82,91.38,28,73.38,28Z" fill="#175d9d"/><path d="M73.38,93.24c-14.34,0-26-9.06-26-20.19,0-13.28,13.78-38.19,26-38.19s26,24.92,26,38.19C99.39,84.18,87.72,93.24,73.38,93.24Z" fill="#f39638"/><path d="M73.38,25.68a21.58,21.58,0,0,1,11.51,3.66L91.36,6.29h0a42.06,42.06,0,0,0-36,0l6.51,23.05a21.58,21.58,0,0,1,11.51-3.63Z" fill="#fff"/><path d="M60.49,32.88,52.64,5l1.75-.83a45.13,45.13,0,0,1,37.92,0L94.06,5,86.23,32.88l-2.6-1.64c-6.9-4.34-13.67-4.35-20.57,0Zm12.89-9.54a22.6,22.6,0,0,1,10.09,2.49L88.64,7.55a40.38,40.38,0,0,0-30.47,0l5.15,18.33A22.59,22.59,0,0,1,73.38,23.34Z" fill="#175d9d"/><path d="M73.38,63.41a3.4,3.4,0,1,1,3.4-3.4h3.61a7,7,0,0,0-5.2-6.74V50.63H71.58v2.64A7,7,0,0,0,73.38,67a3.4,3.4,0,1,1-3.4,3.4H66.37a7,7,0,0,0,5.2,6.74V79.8h3.61V77.16a7,7,0,0,0-1.8-13.75Z" fill="#175d9d"/><rect x="2.3" y="83.92" width="22.28" height="50.32" fill="#e74a23"/><path d="M26.87,136.53H0V81.63H26.87ZM4.59,131.94h17.7V86.22H4.59Z" fill="#175d9d"/><path d="M90.12,116a8.53,8.53,0,0,0,8.64-8.42h0a8.53,8.53,0,0,0-8.64-8.42H66.31a9.68,9.68,0,0,1-3.21-.55l-15.45-8a10.59,10.59,0,0,0-3.51-.6H24.58v39.28h8.64l44,14.3a14.28,14.28,0,0,0,10.92-.88L140.07,116a7.84,7.84,0,0,0,3.57-10.36h0a8.23,8.23,0,0,0-10-4.08L90.15,116.06" fill="#fff"/><path d="M81.64,146.67a16.55,16.55,0,0,1-5.12-.81l-43.7-14.19H22.29V87.8H44.13a12.84,12.84,0,0,1,4.27.73l.29.13L64,96.56a7.37,7.37,0,0,0,2.31.37H90.11a10.84,10.84,0,0,1,10.94,10.71,10.58,10.58,0,0,1-.29,2.46l32.12-10.68a10.55,10.55,0,0,1,12.86,5.26,10.09,10.09,0,0,1-4.57,13.45L89.24,144.85A16.59,16.59,0,0,1,81.64,146.67Zm-54.8-19.58,7.06.11,44,14.3a12.11,12.11,0,0,0,9.17-.73L139,114a5.54,5.54,0,0,0,2.54-7.37,6,6,0,0,0-7.26-2.92L96.46,116.34a11,11,0,0,1-6.35,2H75.95l18.35-6.1a6,6,0,0,0,2.17-4.61,6.25,6.25,0,0,0-6.35-6.13H66.31a12,12,0,0,1-4-.68l-.29-.13-15.3-7.9a8.26,8.26,0,0,0-2.61-.42H26.87Z" fill="#175d9d"/><path d="M66.3,122.34H61.71a8.7,8.7,0,0,1,8.78-8.61H90.11v4.61H70.49A4.11,4.11,0,0,0,66.3,122.34Z" fill="#175d9d"/><line x1="15.73" y1="123.79" x2="11.15" y2="123.79" fill="none"/><rect x="11.14" y="121.49" width="4.59" height="4.59" fill="#175d9d"/><line x1="15.73" y1="109.08" x2="11.15" y2="109.08" fill="none"/><rect x="11.14" y="106.79" width="4.59" height="4.59" fill="#175d9d"/><line x1="15.73" y1="94.38" x2="11.15" y2="94.38" fill="none"/><rect x="11.14" y="92.08" width="4.59" height="4.59" fill="#175d9d"/></svg>