<svg xmlns="http://www.w3.org/2000/svg" viewBox="0 0 210.04 210"><defs><style>.cls-1{fill:#175d9d;}.cls-2{fill:#a2bed8;}.cls-3{fill:#457db1;}.cls-4{fill:#e6eef6;}.cls-5{fill:#f4f7fa;}.cls-6{fill:#f39638;}.cls-7{fill:#e74a23;}</style></defs><title>t-documentation</title><g id="Warstwa_2" data-name="Warstwa 2"><g id="page_1_-home" data-name="page 1 -home"><g id="str_1" data-name="str 1"><g id="ikony"><path class="cls-1" d="M151.44,179.31H0V0H111.86l39.58,39.58ZM6.54,172.77H144.9V42.29L109.15,6.54H6.54Z"/><polygon class="cls-2" points="18.7 160.61 18.7 18.78 103.75 18.78 132.7 48.13 132.7 160.61 18.7 160.61"/><polygon class="cls-3" points="103.72 48.13 132.74 48.13 103.72 18.7 103.72 48.13"/><line class="cls-4" x1="37.3" y1="41.58" x2="37.3" y2="35.04"/><rect class="cls-1" x="34.03" y="35.04" width="6.54" height="6.54"/><line class="cls-4" x1="58.41" y1="41.58" x2="58.41" y2="35.04"/><rect class="cls-1" x="55.14" y="35.04" width="6.54" height="6.54"/><line class="cls-4" x1="79.52" y1="41.58" x2="79.52" y2="35.04"/><rect class="cls-1" x="76.24" y="35.04" width="6.54" height="6.54"/><path class="cls-5" d="M185.3,178.24l10.55,3.82,7.52-14.19-9.18-6.41a47.72,47.72,0,0,0,1.69-19L206,137.84l-4.89-15.33-11.05,1.84a49,49,0,0,0-12.42-14.66l3.82-10.38-14.43-7.49-6.46,9a49.89,49.89,0,0,0-19.25-1.77L136.6,89l-15.52,4.74,1.92,10.9a48.64,48.64,0,0,0-14.81,12.17L97.64,113l-7.52,14.19,9.18,6.41a47.72,47.72,0,0,0-1.69,19l-10.16,4.64,4.89,15.33,11.05-1.84a49,49,0,0,0,12.42,14.66L112,195.77l14.43,7.49,6.46-9A49.9,49.9,0,0,0,152.13,196l4.76,10,15.52-4.74-1.92-10.9A48.64,48.64,0,0,0,185.3,178.24Z"/><path class="cls-1" d="M155.15,210l-5-10.54A53.22,53.22,0,0,1,134.22,198l-6.79,9.47-19.51-10.12,4-10.92a51.9,51.9,0,0,1-10.24-12.1l-11.62,1.93-6.63-20.79,10.69-4.88A50.65,50.65,0,0,1,95.53,135l-9.66-6.75L96.08,109l11.09,4a51.56,51.56,0,0,1,12.2-10l-2-11.47,21-6.41,5,10.54a53.06,53.06,0,0,1,15.93,1.46l6.79-9.47,19.51,10.12-4,10.92a51.94,51.94,0,0,1,10.24,12.1l11.62-1.93L210,139.61l-10.69,4.88A50.69,50.69,0,0,1,198,160.09l9.66,6.75-10.21,19.26-11.09-4a51.57,51.57,0,0,1-12.2,10l2,11.47Zm-1-17.48,4.54,9.57L168.69,199l-1.83-10.39,2.09-1.12a45.19,45.19,0,0,0,13.81-11.35l1.47-1.8L194.29,178l4.83-9.12-8.74-6.11.67-2.26a44.27,44.27,0,0,0,1.58-17.67l-.26-2.35,9.67-4.42-3.15-9.87L188.36,128l-1.12-2a45.54,45.54,0,0,0-11.59-13.68l-1.85-1.47,3.64-9.89L168.08,96l-6.16,8.6-2.23-.66a46.67,46.67,0,0,0-18-1.65l-2.3.24L134.85,93,124.8,96.06l1.83,10.39-2.09,1.12a45.17,45.17,0,0,0-13.81,11.35l-1.47,1.8L99.2,117.07l-4.83,9.12,8.74,6.11-.67,2.26a44.28,44.28,0,0,0-1.58,17.67l.26,2.35L91.44,159l3.15,9.87,10.54-1.75,1.12,2a45.55,45.55,0,0,0,11.59,13.68l1.85,1.47-3.64,9.89,9.36,4.85,6.16-8.6,2.23.65a46.81,46.81,0,0,0,18,1.65Z"/><path class="cls-6" d="M130.22,178.73A35.14,35.14,0,0,1,115,131.09c9.13-17.23,30.73-23.82,48.25-14.74A35.14,35.14,0,0,1,178.47,164C169.34,181.22,147.74,187.82,130.22,178.73Z"/><path class="cls-4" d="M139.25,161.69a15.94,15.94,0,0,1-6.89-21.6,16.28,16.28,0,0,1,21.88-6.68A15.94,15.94,0,0,1,161.13,155,16.28,16.28,0,0,1,139.25,161.69Z"/><path class="cls-1" d="M146.82,166.81a19.79,19.79,0,0,1-9.07-2.22,19.3,19.3,0,0,1-9.62-11.44,18.92,18.92,0,0,1,1.35-14.6,19.39,19.39,0,0,1,17.21-10.27,19.78,19.78,0,0,1,9.07,2.22,19.3,19.3,0,0,1,9.63,11.44,18.92,18.92,0,0,1-1.35,14.6A19.39,19.39,0,0,1,146.82,166.81Zm-.14-32a12.86,12.86,0,0,0-11.43,6.8,12.42,12.42,0,0,0-.88,9.59,12.8,12.8,0,0,0,6.39,7.58,13,13,0,0,0,6.06,1.48,12.86,12.86,0,0,0,11.43-6.8,12.42,12.42,0,0,0,.88-9.59,12.8,12.8,0,0,0-6.39-7.58A13,13,0,0,0,146.68,134.82Z"/><line class="cls-4" x1="34.03" y1="54.71" x2="82.79" y2="54.71"/><rect class="cls-1" x="34.03" y="51.44" width="48.75" height="6.54"/><path class="cls-7" d="M50.61,106.85A20.34,20.34,0,1,0,71,127.2H50.61Z"/><path class="cls-7" d="M55.9,101.57v20.34H76.24A20.34,20.34,0,0,0,55.9,101.57Z"/></g></g></g></g></svg>