<svg xmlns="http://www.w3.org/2000/svg" viewBox="0 0 140.01 140"><title>Zasób 1</title><rect x="2.19" y="20.03" width="95.42" height="117.78" fill="#e6eef6"/><path d="M99.8,140H0V17.84H99.8ZM4.38,135.63h91V22.22h-91Z" fill="#175d9d"/><rect x="10.95" y="34.99" width="77.92" height="94.07" fill="#f39638"/><polygon points="72.28 26.96 27.53 26.96 32.68 13.1 67.13 13.1 72.28 26.96" fill="#e6eef6"/><path d="M75.42,29.15h-51l6.71-18.23h37.5ZM30.67,24.78H69.13L65.61,15.3H34.2Z" fill="#175d9d"/><path d="M49.9,2.19h0A6.89,6.89,0,0,0,43,9.07h0A6.89,6.89,0,0,0,49.9,16h0a6.89,6.89,0,0,0,6.9-6.88h0a6.89,6.89,0,0,0-6.9-6.88Z" fill="#e6eef6"/><path d="M49.9,18.16A9.08,9.08,0,1,1,59,9.07,9.08,9.08,0,0,1,49.9,18.16Zm0-13.78a4.7,4.7,0,1,0,4.7,4.7h0a4.71,4.71,0,0,0-4.7-4.71Z" fill="#175d9d"/><line x1="19.58" y1="48.09" x2="47.36" y2="48.09" fill="none"/><rect x="19.58" y="45.9" width="27.78" height="4.37" fill="#175d9d"/><line x1="19.58" y1="60.97" x2="47.36" y2="60.97" fill="none"/><rect x="19.58" y="58.78" width="27.78" height="4.37" fill="#175d9d"/><line x1="19.58" y1="73.85" x2="47.36" y2="73.85" fill="none"/><rect x="19.58" y="71.66" width="27.78" height="4.37" fill="#175d9d"/><line x1="70.68" y1="48.09" x2="80.23" y2="48.09" fill="none"/><rect x="70.68" y="45.9" width="9.54" height="4.37" fill="#175d9d"/><line x1="70.68" y1="60.97" x2="80.23" y2="60.97" fill="none"/><rect x="70.68" y="58.78" width="9.54" height="4.37" fill="#175d9d"/><line x1="70.68" y1="73.85" x2="80.23" y2="73.85" fill="none"/><rect x="70.68" y="71.66" width="9.54" height="4.37" fill="#175d9d"/><line x1="23.72" y1="120.02" x2="23.72" y2="115.65" fill="none"/><rect x="21.53" y="115.65" width="4.37" height="4.37" fill="#175d9d"/><line x1="33.27" y1="120.02" x2="33.27" y2="115.65" fill="none"/><rect x="31.08" y="115.65" width="4.37" height="4.37" fill="#175d9d"/><line x1="42.82" y1="120.02" x2="42.82" y2="115.65" fill="none"/><rect x="40.63" y="115.65" width="4.37" height="4.37" fill="#175d9d"/><rect x="72.65" y="85.25" width="65.17" height="52.56" fill="#e6eef6"/><path d="M140,140H70.46V83.07H140Zm-65.17-4.37h60.8V87.44H74.84Z" fill="#175d9d"/><rect x="94.15" y="76.32" width="22.16" height="8.92" fill="#e6eef6"/><path d="M118.5,87.43H92V74.13H118.5ZM96.34,83.07h17.79V78.52H96.34Z" fill="#175d9d"/><path d="M72.65,85.07v23.66l1.61.48c19.56,5.83,44.09,5.66,63.55-.48h0V85.07Z" fill="#e6eef6"/><path d="M105.18,115.61h0a112.1,112.1,0,0,1-31.54-4.34l-3.17-.95V82.84H140v27.45l-1.53.48A112.2,112.2,0,0,1,105.18,115.61Zm-30.34-8.54h0a107.67,107.67,0,0,0,30.29,4.16,108.92,108.92,0,0,0,30.5-4.16V87.22H74.84Z" fill="#175d9d"/><path d="M105.23,120.39h0a4.87,4.87,0,0,1-4.87-4.87V105.31h9.77v10.21a4.87,4.87,0,0,1-4.87,4.87Z" fill="#e6eef6"/><path d="M105.23,122.57a7.06,7.06,0,0,1-7.05-7.05V103.07h14.11v12.4a7.06,7.06,0,0,1-7,7.1Zm-2.68-15.08v8a2.68,2.68,0,1,0,5.36,0h0v-8Z" fill="#175d9d"/><path d="M32.23,91.45c4.06,6.33-2.67,13.06-9,9a3.58,3.58,0,0,1-1.07-1.07c-4.06-6.33,2.67-13.06,9-9A3.58,3.58,0,0,1,32.23,91.45Z" fill="#e6eef6"/><path d="M27.2,103.87a8.46,8.46,0,1,1,8.46-8.46A8.46,8.46,0,0,1,27.2,103.87Zm0-12.54a4.08,4.08,0,1,0,4.08,4.08,4.08,4.08,0,0,0-4.08-4.08Z" fill="#175d9d"/><path d="M54.94,91.45c4.07,6.33-2.67,13.06-9,9a3.58,3.58,0,0,1-1.07-1.07c-4.06-6.33,2.67-13.06,9-9A3.58,3.58,0,0,1,54.94,91.45Z" fill="#e6eef6"/><path d="M49.9,103.87a8.46,8.46,0,1,1,8.46-8.46A8.46,8.46,0,0,1,49.9,103.87Zm0-12.54A4.08,4.08,0,1,0,54,95.41a4.08,4.08,0,0,0-4.08-4.08Z" fill="#175d9d"/></svg>