<svg xmlns="http://www.w3.org/2000/svg" viewBox="0 0 210 210"><defs><style>.cls-1{fill:#175d9d;}.cls-2{fill:#a2bed8;}.cls-3{fill:#f39638;}.cls-4{fill:#e6eef6;}.cls-5{fill:#e74a23;}</style></defs><title>t-personal-information</title><g id="Warstwa_2" data-name="Warstwa 2"><g id="page_1_-home" data-name="page 1 -home"><g id="str_1" data-name="str 1"><g id="ikony"><path class="cls-1" d="M210,210H0V44H210ZM6.56,203.44H203.44V50.53H6.56Z"/><rect class="cls-2" x="38.39" y="38.39" width="133.22" height="177.19" transform="translate(231.98 21.98) rotate(90)"/><path class="cls-1" d="M210,50.53H0V0H210ZM6.56,44H203.44V6.56H6.56Z"/><path class="cls-3" d="M34.76,18.72c6.76,10.37-4.32,21.46-14.69,14.69a5.5,5.5,0,0,1-1.59-1.59C11.71,21.44,22.8,10.36,33.17,17.13A5.49,5.49,0,0,1,34.76,18.72Z"/><rect class="cls-1" x="108.25" y="79.22" width="70.24" height="6.56"/><rect class="cls-1" x="108.25" y="104.17" width="70.24" height="6.56"/><rect class="cls-1" x="156" y="129.11" width="6.56" height="6.56"/><rect class="cls-1" x="140.08" y="129.11" width="6.56" height="6.56"/><rect class="cls-1" x="124.17" y="129.11" width="6.56" height="6.56"/><rect class="cls-1" x="108.25" y="129.11" width="6.56" height="6.56"/><rect class="cls-1" x="171.92" y="129.11" width="6.56" height="6.56"/><rect class="cls-1" x="31.52" y="171.37" width="146.97" height="6.56"/><rect class="cls-4" x="26.09" y="81.14" width="70.03" height="59.17" rx="3.8" ry="3.8" transform="translate(171.83 49.62) rotate(90)"/><path class="cls-1" d="M84.13,149h-46a9.85,9.85,0,0,1-9.84-9.84V82.28a9.85,9.85,0,0,1,9.84-9.84h46A9.85,9.85,0,0,1,94,82.28v56.91A9.85,9.85,0,0,1,84.13,149Zm-46-70a3.29,3.29,0,0,0-3.28,3.28v56.91a3.29,3.29,0,0,0,3.28,3.28h46a3.29,3.29,0,0,0,3.28-3.28V82.28A3.29,3.29,0,0,0,84.13,79Z"/><circle class="cls-5" cx="61.1" cy="93.42" r="10.92"/><path class="cls-5" d="M38.08,145.74h46a6.56,6.56,0,0,0,6.56-6.56v-11.3a33.94,33.94,0,0,0-59.17,0v11.3A6.56,6.56,0,0,0,38.08,145.74Z"/><path class="cls-1" d="M84.13,149h-46a9.85,9.85,0,0,1-9.84-9.84V82.28a9.85,9.85,0,0,1,9.84-9.84h46A9.85,9.85,0,0,1,94,82.28v56.91A9.85,9.85,0,0,1,84.13,149Zm-46-70a3.29,3.29,0,0,0-3.28,3.28v56.91a3.29,3.29,0,0,0,3.28,3.28h46a3.29,3.29,0,0,0,3.28-3.28V82.28A3.29,3.29,0,0,0,84.13,79Z"/></g></g></g></g></svg>