<?xml version="1.0" encoding="utf-8"?>
<!-- Generator: Adobe Illustrator 21.1.0, SVG Export Plug-In . SVG Version: 6.00 Build 0)  -->
<svg version="1.1" id="Warstwa_1" xmlns="http://www.w3.org/2000/svg" xmlns:xlink="http://www.w3.org/1999/xlink" x="0px" y="0px"
	 viewBox="0 0 210 210" style="enable-background:new 0 0 210 210;" xml:space="preserve">
<style type="text/css">
	.st0{fill:#8FB1D0;}
	.st1{fill:#175D9D;}
	.st2{fill:#E74A23;}
	.st3{fill:#E6EEF6;}
	.st4{fill:#F39638;}
	.st5{fill:none;}
</style>
<title>t-time-off</title>
<g id="Warstwa_2">
	<g id="page_1_-home">
		<g id="str_1">
			<g id="ikony">
				<path class="st0" d="M104,117.9c26.2,0,49.8,15.7,59.8,39.8c13.8-33.1-1.8-71-34.9-84.8c-33.1-13.8-71,1.8-84.8,34.9
					c-6.7,16-6.7,34,0,49.9C54.2,133.6,77.8,117.8,104,117.9z"/>
				<path class="st1" d="M163.8,163.9l-2.2-5.3c-13.3-31.8-49.9-46.8-81.8-33.5c-15.1,6.3-27.2,18.4-33.5,33.5l-2.2,5.3l-2.2-5.3
					c-14.3-34.3,1.9-73.7,36.2-88c8.2-3.4,17-5.2,25.9-5.2c37.1,0,67.3,30.1,67.2,67.3c0,8.9-1.8,17.7-5.2,25.9L163.8,163.9z
					 M56.5,135.1c26.3-26.3,68.9-26.2,95.1,0c4.8,4.8,8.8,10.3,12,16.3c10.3-32.9-8-68-40.9-78.3s-68,8-78.3,40.9
					c-3.8,12.2-3.8,25.2,0,37.4C47.6,145.5,51.6,140,56.5,135.1z"/>
				<path class="st2" d="M87.3,146.9c-5.7,19.4-0.2,41,16.7,56.2l0,0c16.9-15.2,22.4-36.8,16.7-56.2H87.3z"/>
				<path class="st1" d="M107.9,202.7L107.9,202.7c-0.8,0.8-1.5,1.5-2.3,2.2l-1.6,1.5l-1.6-1.5c-16.9-15.3-23.5-37.7-17.4-58.7
					l0.5-1.7l36.9,0l0.5,1.7C128.9,166.3,123.2,187.4,107.9,202.7z M104,199.9c14.1-13.7,19.5-32.5,14.9-50.6H89.1
					C84.5,167.3,90.1,186.4,104,199.9L104,199.9z"/>
				<path class="st3" d="M133.6,146.9c25.6-45.4,15.7-101-29.6-138.4l0,0c-45.3,37.4-55.2,93.1-29.6,138.4L133.6,146.9z"/>
				<path class="st1" d="M135,149.3H73l-0.7-1.2C47.7,104.5,55.7,52.5,92.7,15.5c3.1-3.1,6.4-6.1,9.8-8.9l1.5-1.3l1.5,1.3
					c44.9,37.1,57,93.9,30.2,141.5L135,149.3z M75.8,144.5h56.4c24.4-44.7,13.2-97.7-28.2-132.9c-2.8,2.4-5.4,4.8-7.9,7.3
					C61,54,53.1,103.2,75.8,144.5z"/>
				<path class="st4" d="M116.6,44c9.4,15.3-6.7,31.4-22,22c-1.3-0.8-2.5-2-3.3-3.3c-9.4-15.3,6.7-31.4,22-22
					C114.7,41.5,115.8,42.6,116.6,44z"/>
				<line class="st5" x1="79.2" y1="108.9" x2="79.2" y2="104.2"/>
				<rect x="76.8" y="104.2" class="st1" width="4.8" height="4.8"/>
				<line class="st5" x1="131.4" y1="108.9" x2="131.4" y2="104.2"/>
				<rect x="129" y="104.2" class="st1" width="4.8" height="4.8"/>
			</g>
		</g>
	</g>
</g>
</svg>
