<svg xmlns="http://www.w3.org/2000/svg" viewBox="0 0 65 65"><defs><style>.cls-1{fill:#8fb1d0;}</style></defs><title>ico-calendar</title><g id="Warstwa_2" data-name="Warstwa 2"><g id="page_1_-home" data-name="page 1 -home"><g id="menu_gora" data-name="menu gora"><path class="cls-1" d="M65,11.61a8.08,8.08,0,0,0-8.12-8.12H47.59V0H45.27V3.48H19.73V0H17.41V3.48H8.12A8.08,8.08,0,0,0,0,11.61V56.88A8.08,8.08,0,0,0,8.12,65H56.87A8.08,8.08,0,0,0,65,56.88ZM62.68,56.88a5.75,5.75,0,0,1-5.8,5.8H8.12a5.75,5.75,0,0,1-5.8-5.8V23.21H62.68Zm0-36H2.32V11.61a5.75,5.75,0,0,1,5.8-5.8h9.29V9.29h2.32V5.8H45.27V9.29h2.32V5.8h9.29a5.75,5.75,0,0,1,5.8,5.8Z"/><polygon class="cls-1" points="43.18 37.38 41.55 35.75 29.02 48.29 23.33 42.71 21.7 44.34 29.02 51.65 43.18 37.38"/></g></g></g></svg>