<svg xmlns="http://www.w3.org/2000/svg" viewBox="0 0 92.32 63"><defs><style>.cls-1{fill:#a2bed8;}</style></defs><title>ico-mail</title><g id="Warstwa_2" data-name="Warstwa 2"><g id="page_1_-home" data-name="page 1 -home"><g id="menu_gora" data-name="menu gora"><path class="cls-1" d="M77.76,0H14.56A14.57,14.57,0,0,0,0,14.56V48.44A14.57,14.57,0,0,0,14.56,63H77.76A14.57,14.57,0,0,0,92.32,48.44V14.56A14.57,14.57,0,0,0,77.76,0ZM88.2,53.37,59.06,33.8,89.32,14.86V48.44A11.46,11.46,0,0,1,88.2,53.37ZM14.56,3H77.76a11.57,11.57,0,0,1,11.15,8.57L53.28,33.88a20.44,20.44,0,0,1-14.24,0L3.4,11.57A11.57,11.57,0,0,1,14.56,3ZM3,48.44V14.86L33.16,33.74,4.07,53.27A11.47,11.47,0,0,1,3,48.44ZM77.76,60H14.56a11.54,11.54,0,0,1-8.89-4.18L35.94,35.48l1.63,1,.26.13a23.43,23.43,0,0,0,16.64,0l.14-.05,1.66-1L86.58,55.9A11.53,11.53,0,0,1,77.76,60Z"/></g></g></g></svg>