<svg xmlns="http://www.w3.org/2000/svg" viewBox="0 0 70 70"><defs><style>.cls-1{fill:#a2bed8;}</style></defs><title>ico-settings</title><g id="Warstwa_2" data-name="Warstwa 2"><g id="page_1_-home" data-name="page 1 -home"><g id="menu_gora" data-name="menu gora"><path class="cls-1" d="M49.85,70a9,9,0,0,0,8.45-6l.5-1.42H70V59.39H58.8L58.29,58A8.94,8.94,0,0,0,41.4,58l-.5,1.41H0v3.17H40.89l.5,1.42A9,9,0,0,0,49.85,70ZM44,61a5.84,5.84,0,1,1,5.84,5.84A5.85,5.85,0,0,1,44,61Z"/><path class="cls-1" d="M27.57,44A9,9,0,0,0,36,38l.5-1.42H70V33.4H36.52L36,32a8.94,8.94,0,0,0-16.89,0l-.5,1.41H0v3.17H18.61l.5,1.42A9,9,0,0,0,27.57,44Zm-5.84-9a5.84,5.84,0,1,1,5.84,5.84A5.85,5.85,0,0,1,21.73,35Z"/><path class="cls-1" d="M42.42,18a9,9,0,0,0,8.45-6l.5-1.42H70V7.41H51.37L50.87,6A8.94,8.94,0,0,0,34,6l-.5,1.41H0v3.17H33.47L34,12A9,9,0,0,0,42.42,18ZM36.58,9a5.84,5.84,0,1,1,5.84,5.84A5.85,5.85,0,0,1,36.58,9Z"/></g></g></g></svg>