<svg xmlns="http://www.w3.org/2000/svg" viewBox="0 0 62.58 70"><defs><style>.cls-1{fill:#a2bed8;}</style></defs><title>ico-notification</title><g id="Warstwa_2" data-name="Warstwa 2"><g id="page_1_-home" data-name="page 1 -home"><g id="menu_gora" data-name="menu gora"><path class="cls-1" d="M47.74,55.15H61a1.58,1.58,0,0,0,1.32-2.46A42.48,42.48,0,0,1,55.15,29V23.86a23.86,23.86,0,0,0-47.72,0V29A42.51,42.51,0,0,1,.27,52.68a1.58,1.58,0,0,0,1.32,2.46H14.84l.35,1.7a16.44,16.44,0,0,0,32.21,0ZM4.58,52l1.47-3.05A45.38,45.38,0,0,0,10.6,29V23.86a20.69,20.69,0,1,1,41.38,0V29a45.36,45.36,0,0,0,4.54,19.89L58,52Zm39.16,6a13.2,13.2,0,0,1-24.92,0l-1-2.84H44.76Z"/></g></g></g></svg>