<svg xmlns="http://www.w3.org/2000/svg" viewBox="0 0 70.62 50"><title>icon-single-comparison</title><rect x="27.93" y="27.68" width="14.76" height="2.2" fill="#bdccd4"/><rect x="27.93" y="39.74" width="14.76" height="2.2" fill="#bdccd4"/><polygon points="8.78 22.89 6.58 22.89 6.58 15.78 16.43 5.92 28.73 5.92 28.73 8.12 17.35 8.12 8.78 16.69 8.78 22.89" fill="#bdccd4"/><polygon points="64.05 22.89 61.85 22.89 61.85 16.69 53.28 8.12 41.89 8.12 41.89 5.92 54.19 5.92 64.05 15.78 64.05 22.89" fill="#bdccd4"/><path d="M29.83,7h-2.2A4.82,4.82,0,0,0,18,7h-2.2a7,7,0,0,1,14,0Z" fill="#bdccd4"/><path d="M54.84,7h-2.2A4.82,4.82,0,0,0,43,7h-2.2a7,7,0,0,1,14,0Z" fill="#bdccd4"/><path d="M35.31,14.7A7.69,7.69,0,0,1,27.63,7h2.2a5.48,5.48,0,1,0,11,0H43A7.69,7.69,0,0,1,35.31,14.7Z" fill="#bdccd4"/><rect x="34.21" y="33.71" width="2.2" height="2.2" fill="#bdccd4"/><path d="M55.43,50A15.19,15.19,0,1,1,70.62,34.81,15.21,15.21,0,0,1,55.43,50Zm0-28.18a13,13,0,1,0,13,13A13,13,0,0,0,55.43,21.82Z" fill="#bdccd4"/><path d="M55.43,45.85a11,11,0,1,1,11-11A11,11,0,0,1,55.43,45.85Zm0-19.87a8.84,8.84,0,1,0,8.84,8.84A8.85,8.85,0,0,0,55.43,26Z" fill="#bdccd4"/><path d="M50.75,34.81h-2.2a6.89,6.89,0,0,1,6.88-6.88v2.2A4.69,4.69,0,0,0,50.75,34.81Z" fill="#bdccd4"/><path d="M15.19,50A15.19,15.19,0,1,1,30.38,34.81,15.21,15.21,0,0,1,15.19,50Zm0-28.18a13,13,0,1,0,13,13A13,13,0,0,0,15.19,21.82Z" fill="#bdccd4"/><path d="M15.19,45.85a11,11,0,1,1,11-11A11,11,0,0,1,15.19,45.85Zm0-19.87A8.84,8.84,0,1,0,24,34.81,8.85,8.85,0,0,0,15.19,26Z" fill="#bdccd4"/><path d="M10.51,34.81H8.31a6.89,6.89,0,0,1,6.88-6.88v2.2A4.69,4.69,0,0,0,10.51,34.81Z" fill="#bdccd4"/></svg>