<svg xmlns="http://www.w3.org/2000/svg" viewBox="0 0 62.56 50"><title>icon-adjustment-02</title><path d="M58,50H4.53V47.91A2.44,2.44,0,0,0,7,45.47V10.7H62.56V45.47A4.54,4.54,0,0,1,58,50ZM8.36,47.91H58a2.44,2.44,0,0,0,2.44-2.44V12.79H9.07V45.47A4.5,4.5,0,0,1,8.36,47.91Z" fill="#a2bed8"/><path d="M4.53,50A4.54,4.54,0,0,1,0,45.47V0H22.41l4.65,4.65h35.5V8.72H60.47v-2H26.19L21.54,2.09H2.09V45.47a2.44,2.44,0,0,0,2.44,2.44Z" fill="#a2bed8"/><rect x="11.51" y="43.26" width="46.51" height="2.09" fill="#a2bed8"/><polygon points="34.77 41.49 22.94 29.66 29.49 29.66 29.49 19.29 31.59 19.29 31.59 31.75 27.99 31.75 34.77 38.53 41.54 31.75 37.95 31.75 37.95 19.29 40.04 19.29 40.04 29.66 46.6 29.66 34.77 41.49" fill="#a2bed8"/><rect x="6.86" y="4.65" width="2.33" height="2.09" fill="#a2bed8"/><rect x="11.51" y="4.65" width="2.33" height="2.09" fill="#a2bed8"/><rect x="16.16" y="4.65" width="2.33" height="2.09" fill="#a2bed8"/></svg>