<svg xmlns="http://www.w3.org/2000/svg" viewBox="0 0 74.13 92"><defs><style>.cls-1{fill:#e74a23;stroke:#f4f7fa;stroke-miterlimit:10;stroke-width:2px;}</style></defs><title>Zasób 3</title><g id="Warstwa_2" data-name="Warstwa 2"><g id="infographic"><path class="cls-1" d="M36.82,19.37A12.86,12.86,0,1,0,49.68,32.23,12.87,12.87,0,0,0,36.82,19.37Zm0,18.37a5.51,5.51,0,1,1,5.51-5.51A5.52,5.52,0,0,1,36.82,37.74Z"/><path class="cls-1" d="M72.73,77.32,60.25,52.84l.39-.47a31.23,31.23,0,1,0-47.33.33l.41.47L1.4,77.32a3.67,3.67,0,0,0,4.4,5.16l8.87-2.88,2.88,8.86A3.67,3.67,0,0,0,20.76,91a3.8,3.8,0,0,0,3.56-2L37.06,64,49.81,89a3.72,3.72,0,0,0,3.57,2,3.66,3.66,0,0,0,3.2-2.53l2.88-8.86,8.86,2.88a3.68,3.68,0,0,0,4.41-5.16Zm-50.92.43-1.28-3.91A3.64,3.64,0,0,0,18.7,71.7a3.68,3.68,0,0,0-2.81-.22L12,72.75l7.46-14.62.85.53a31.07,31.07,0,0,0,8.17,3.62l1.08.3Zm15-21.65A23.88,23.88,0,1,1,60.7,32.23,23.91,23.91,0,0,1,36.82,56.1ZM58.23,71.48a3.72,3.72,0,0,0-2.8.22,3.64,3.64,0,0,0-1.83,2.14l-1.27,3.91L44.54,62.49l1.06-.31a31.16,31.16,0,0,0,8.11-3.73l.86-.55,7.58,14.86Z"/></g></g></svg>