<svg xmlns="http://www.w3.org/2000/svg" viewBox="0 0 58.61 50"><defs><style>.cls-1{fill:#a2bed8;}</style></defs><title>nav-search</title><g id="Warstwa_2" data-name="Warstwa 2"><g id="Warstwa_1-2" data-name="Warstwa 1"><path class="cls-1" d="M.21,21.46A18.67,18.67,0,0,0,18.66,37.35h0a18.77,18.77,0,0,0,12.61-4.9L35,35.21l-.88,1.19L52.58,50l6-8.18L40.18,28.22l-.88,1.19-3.74-2.76A18.68,18.68,0,0,0,18.69,0a18.76,18.76,0,0,0-15,7.59A18.55,18.55,0,0,0,.21,21.46ZM37.44,35.91l3.24-4.39,14.64,10.8-3.24,4.39ZM33,30.79l1.48-2,3.42,2.52-1.48,2ZM5.55,9A16.39,16.39,0,0,1,18.69,2.36a16.32,16.32,0,0,1,13.12,26A16.39,16.39,0,0,1,18.66,35,16.32,16.32,0,0,1,5.55,9Z"/></g></g></svg>