<svg xmlns="http://www.w3.org/2000/svg" viewBox="0 0 50.67 50"><defs><style>.cls-1{fill:#a2bed8;}</style></defs><title>Zasób 5</title><g id="Warstwa_2" data-name="Warstwa 2"><g id="infographic"><path class="cls-1" d="M30,16.16A10.25,10.25,0,0,0,25.3,15a10.06,10.06,0,0,0-8.92,5.33,9.8,9.8,0,0,0-.7,7.56,10,10,0,0,0,5,5.93A10.28,10.28,0,0,0,25.37,35a10.06,10.06,0,0,0,8.92-5.33A9.8,9.8,0,0,0,35,22.1,10,10,0,0,0,30,16.16ZM31.91,28.4a7.36,7.36,0,0,1-6.54,3.89,7.44,7.44,0,0,1-3.46-.85,7.32,7.32,0,0,1-3.66-4.34,7.12,7.12,0,0,1,.51-5.49,7.36,7.36,0,0,1,6.54-3.89,7.46,7.46,0,0,1,3.46.85,7.34,7.34,0,0,1,3.66,4.34A7.13,7.13,0,0,1,31.91,28.4ZM28.7,50l-2-4.22a21.3,21.3,0,0,1-6.38-.58L17.61,49l-7.81-4,1.61-4.37a20.77,20.77,0,0,1-4.1-4.84l-4.65.77L0,28.17l4.28-2A20.27,20.27,0,0,1,4.84,20L1,17.28,5.06,9.57,9.5,11.18a20.64,20.64,0,0,1,4.88-4l-.81-4.59L22,0l2,4.22a21.24,21.24,0,0,1,6.38.58L33.07,1l7.81,4L39.27,9.43a20.79,20.79,0,0,1,4.1,4.84L48,13.51l2.65,8.32-4.28,2A20.29,20.29,0,0,1,45.84,30l3.87,2.7-4.09,7.71-4.44-1.61a20.64,20.64,0,0,1-4.88,4l.81,4.59Zm-.42-7,1.82,3.83,4-1.23-.73-4.16.84-.45a18.09,18.09,0,0,0,5.53-4.54l.59-.72,4,1.46,1.93-3.65L42.8,31.1l.27-.91a17.72,17.72,0,0,0,.63-7.07l-.11-.94,3.87-1.77-1.26-3.95-4.22.7-.45-.81a18.23,18.23,0,0,0-4.64-5.48l-.74-.59,1.46-4L33.88,4.38,31.41,7.82l-.89-.26a18.68,18.68,0,0,0-7.2-.66l-.92.1L20.58,3.16l-4,1.23.73,4.16L16.45,9a18.08,18.08,0,0,0-5.53,4.54l-.59.72-4-1.46L4.37,16.46l3.5,2.44-.27.91A17.72,17.72,0,0,0,7,26.88l.11.94L3.2,29.59l1.26,3.95,4.22-.7.45.81a18.23,18.23,0,0,0,4.64,5.48l.74.59-1.46,4,3.75,1.94,2.47-3.44.89.26a18.74,18.74,0,0,0,7.2.66Z"/></g></g></svg>