<svg xmlns="http://www.w3.org/2000/svg" viewBox="0 0 50 50"><title>icon-basic-information</title><polygon points="0 12.5 5 12.5 5 5 12.5 5 12.5 0 0 0 0 12.5" fill="#a2bed8"/><polygon points="5 37.5 0 37.5 0 50 12.5 50 12.5 45 5 45 5 37.5" fill="#a2bed8"/><polygon points="45 45 37.5 45 37.5 50 50 50 50 37.5 45 37.5 45 45" fill="#a2bed8"/><polygon points="37.5 0 37.5 5 45 5 45 12.5 50 12.5 50 0 37.5 0" fill="#a2bed8"/><rect y="17.5" width="5" height="15" fill="#a2bed8"/><rect x="17.5" y="45" width="15" height="5" fill="#a2bed8"/><rect x="45" y="17.5" width="5" height="15" fill="#a2bed8"/><rect x="17.5" width="15" height="5" fill="#a2bed8"/><rect x="22.5" y="10" width="5" height="20" fill="#a2bed8"/><rect x="22.5" y="35" width="5" height="5" fill="#a2bed8"/></svg>