<svg xmlns="http://www.w3.org/2000/svg" viewBox="0 0 50 50"><title>icon-salary</title><path d="M27.21,25.75V24.5a4.66,4.66,0,0,0-1.14-9.19H23.93a1.89,1.89,0,0,1,0-3.78h5.41a1.39,1.39,0,0,0,0-2.78H27.21V7.66a1.39,1.39,0,1,0-2.78,0v1.1h-.5a4.67,4.67,0,0,0,0,9.33h2.13a1.89,1.89,0,0,1,0,3.78H20.66a1.39,1.39,0,0,0,0,2.78h3.77v1.11a1.39,1.39,0,1,0,2.78,0Z" fill="#bdccd4"/><path d="M48.61,47.22H27.48c3.7-6.12,13.91-23.65,13.91-30.83a16.39,16.39,0,0,0-32.78,0c0,7.18,10.21,24.71,13.91,30.83H1.39a1.39,1.39,0,0,0,0,2.78H48.61a1.39,1.39,0,0,0,0-2.78ZM25,2.78A13.63,13.63,0,0,1,38.61,16.39C38.61,22.31,29.67,38.27,25,46c-4.67-7.69-13.61-23.65-13.61-29.57A13.63,13.63,0,0,1,25,2.78Z" fill="#bdccd4"/></svg>