<svg xmlns="http://www.w3.org/2000/svg" viewBox="0 0 90 90"><title>icon-compensation</title><path d="M49,46.35V44.1a8.4,8.4,0,0,0-2.06-16.54H43.08a3.4,3.4,0,0,1,0-6.8h9.74a2.5,2.5,0,0,0,0-5H49v-2a2.5,2.5,0,1,0-5,0v2h-.89a8.4,8.4,0,0,0,0,16.8h3.84a3.4,3.4,0,0,1,0,6.8H37.18a2.5,2.5,0,0,0,0,5H44v2a2.5,2.5,0,1,0,5,0Z" fill="#f39638"/><path d="M87.5,85h-38c6.66-11,25-42.56,25-55.5a29.5,29.5,0,0,0-59,0c0,12.93,18.38,44.48,25,55.5H2.5a2.5,2.5,0,0,0,0,5h85a2.5,2.5,0,0,0,0-5ZM45,5A24.53,24.53,0,0,1,69.5,29.5c0,10.66-16.1,39.38-24.5,53.23C36.59,68.88,20.49,40.16,20.49,29.5A24.53,24.53,0,0,1,45,5Z" fill="#f39638"/></svg>