<svg xmlns="http://www.w3.org/2000/svg" viewBox="0 0 50 50"><defs><style>.cls-1{fill:#f4f7fa;}</style></defs><title>icon-user-data</title><g id="Warstwa_2" data-name="Warstwa 2"><g id="page_2-personal_info" data-name="page 2-personal info"><g id="panele_info" data-name="panele info"><g id="Personel_Details" data-name="Personel Details"><path class="cls-1" d="M46,14.37H32.72V12a1.39,1.39,0,0,0-1.39-1.39H29.17V1.39A1.39,1.39,0,0,0,27.78,0H22.22a1.39,1.39,0,0,0-1.39,1.39V10.6H18.67A1.39,1.39,0,0,0,17.28,12v2.38H4a4,4,0,0,0-4,4V46a4,4,0,0,0,4,4H46a4,4,0,0,0,4-4V18.38A4,4,0,0,0,46,14.37ZM23.61,2.78h2.78V10.6H23.61Zm6.33,10.6v3.78H20.06V13.38ZM47.22,46A1.24,1.24,0,0,1,46,47.22H4A1.24,1.24,0,0,1,2.78,46V18.38A1.24,1.24,0,0,1,4,17.15H17.28v1.4a1.39,1.39,0,0,0,1.39,1.39H31.33a1.39,1.39,0,0,0,1.39-1.39v-1.4H46a1.24,1.24,0,0,1,1.24,1.24Z"/><path class="cls-1" d="M7.78,38H18.56a1.39,1.39,0,0,0,1.39-1.39V25a1.39,1.39,0,0,0-1.39-1.39H7.78A1.39,1.39,0,0,0,6.4,25V36.59A1.39,1.39,0,0,0,7.78,38ZM9.17,26.39h8V35.2h-8Z"/><path class="cls-1" d="M42.22,23.61H25.72a1.39,1.39,0,0,0,0,2.78h16.5a1.39,1.39,0,0,0,0-2.78Z"/><path class="cls-1" d="M42.22,32H25.72a1.39,1.39,0,0,0,0,2.78h16.5a1.39,1.39,0,0,0,0-2.78Z"/><path class="cls-1" d="M42.22,40.41H7.78a1.39,1.39,0,0,0,0,2.78H42.22a1.39,1.39,0,0,0,0-2.78Z"/></g></g></g></g></svg>