<svg xmlns="http://www.w3.org/2000/svg" viewBox="0 0 38.59 50"><title>icon-adjustment-01</title><path d="M38.59,50H0V0H28.27L38.59,10.32ZM1.82,48.18H36.77V11.08L27.52,1.82H1.82Z" fill="#a2bed8"/><polygon points="27.21 11.38 37.55 11.38 27.21 1.04 27.21 11.38" fill="#a2bed8"/><line x1="9.44" y1="10.76" x2="19.7" y2="10.76" fill="#a2bed8"/><rect x="9.44" y="9.85" width="10.26" height="1.82" fill="#a2bed8"/><line x1="9.44" y1="25" x2="28.4" y2="25" fill="#a2bed8"/><rect x="9.44" y="24.09" width="18.97" height="1.82" fill="#a2bed8"/><line x1="9.44" y1="19.54" x2="28.4" y2="19.54" fill="#a2bed8"/><rect x="9.44" y="18.62" width="18.97" height="1.82" fill="#a2bed8"/><line x1="9.44" y1="30.46" x2="28.4" y2="30.46" fill="#a2bed8"/><rect x="9.44" y="29.55" width="18.97" height="1.82" fill="#a2bed8"/><line x1="9.44" y1="36.84" x2="28.4" y2="36.84" fill="#a2bed8"/><rect x="9.44" y="35.93" width="18.97" height="1.82" fill="#a2bed8"/></svg>