<svg xmlns="http://www.w3.org/2000/svg" viewBox="0 0 45.11 50"><title>icon-emergency-contacts</title><path d="M17.54,4.89h-5C5.05,4.89,0,16.55,0,27.44S5.05,50,12.58,50h5a5,5,0,0,0,5-5V37.47a5,5,0,0,0-5-5H16.16a13.11,13.11,0,0,1-1.12-5,13.11,13.11,0,0,1,1.12-5h1.38a5,5,0,0,0,5-5V9.9A5,5,0,0,0,17.54,4.89Zm0,12.53H15.41c-4.43,0-5.38,8-5.38,10s1,10,5.38,10h2.14V45h-5C9.24,45,5,36.73,5,27.44S9.24,9.9,12.58,9.9h5Z" fill="#a2bed8"/><path d="M40,0,36.43,3.54a12.55,12.55,0,0,1,0,17.72L40,24.81A17.56,17.56,0,0,0,40,0Z" fill="#a2bed8"/><path d="M29.34,10.63a2.51,2.51,0,0,1,0,3.54l3.55,3.54a7.53,7.53,0,0,0,0-10.63Z" fill="#a2bed8"/></svg>