<svg xmlns="http://www.w3.org/2000/svg" viewBox="0 0 40.27 50"><title>icon-bonus</title><path d="M20,10.5a7,7,0,1,0,7,7A7,7,0,0,0,20,10.5Zm0,10a3,3,0,1,1,3-3A3,3,0,0,1,20,20.5Z" fill="#a2bed8" stroke="#f4f7fa" stroke-miterlimit="10"/><path d="M39.55,42,32.75,28.72l.21-.25a17,17,0,1,0-25.77.18l.22.25L.72,42.05a2,2,0,0,0,2.4,2.81l4.83-1.57,1.57,4.82a2,2,0,0,0,1.75,1.38,2.07,2.07,0,0,0,1.94-1.09l6.94-13.61,6.94,13.61A2,2,0,0,0,29,49.49a2,2,0,0,0,1.74-1.38l1.57-4.82,4.82,1.57A2,2,0,0,0,39.55,42Zm-27.72.24-.69-2.13a2,2,0,0,0-1-1.17,2,2,0,0,0-1.53-.12l-2.13.69,4.06-8,.46.29a16.91,16.91,0,0,0,4.45,2L16,34ZM20,30.5a13,13,0,1,1,13-13A13,13,0,0,1,20,30.5Zm11.66,8.37a2,2,0,0,0-1.53.12,2,2,0,0,0-1,1.16l-.69,2.13L24.21,34l.58-.17a17,17,0,0,0,4.42-2l.47-.3,4.12,8.09Z" fill="#a2bed8" stroke="#f4f7fa" stroke-miterlimit="10"/></svg>