<svg xmlns="http://www.w3.org/2000/svg" viewBox="0 0 50 50"><title>icon-manager-relations</title><path d="M25,15.9a5.33,5.33,0,1,0-5.33-5.33A5.33,5.33,0,0,0,25,15.9ZM25,8a2.55,2.55,0,1,1-2.55,2.55A2.55,2.55,0,0,1,25,8Z" fill="#a2bed8"/><path d="M48.61,39.26H46V35.14a1.39,1.39,0,0,0-1.39-1.39H26.39v-3a15.45,15.45,0,1,0-12-4.13l.06.06a15.38,15.38,0,0,0,9.11,4.07v3H5.37A1.39,1.39,0,0,0,4,35.14v4.12H1.39A1.39,1.39,0,0,0,0,40.65v8A1.39,1.39,0,0,0,1.39,50h8a1.39,1.39,0,0,0,1.39-1.39v-8a1.39,1.39,0,0,0-1.39-1.39H6.76V36.53H23.61v2.73H21a1.39,1.39,0,0,0-1.39,1.39v8A1.39,1.39,0,0,0,21,50h8a1.39,1.39,0,0,0,1.39-1.39v-8A1.39,1.39,0,0,0,29,39.26H26.39V36.53H43.24v2.73H40.65a1.39,1.39,0,0,0-1.39,1.39v8A1.39,1.39,0,0,0,40.65,50h8A1.39,1.39,0,0,0,50,48.61v-8A1.39,1.39,0,0,0,48.61,39.26ZM16.88,25.13a4.5,4.5,0,0,1,3.34-3.86,19.75,19.75,0,0,1,9.55,0,4.5,4.5,0,0,1,3.34,3.86,12.61,12.61,0,0,1-16.24,0ZM25,2.78A12.64,12.64,0,0,1,35.33,22.72a7.26,7.26,0,0,0-4.88-4.15,22.57,22.57,0,0,0-10.91,0,7.24,7.24,0,0,0-4.87,4.15A12.64,12.64,0,0,1,25,2.78ZM8,47.22H2.78V42H8Zm19.63,0H22.41V42h5.18Zm19.63,0H42V42h5.18Z" fill="#a2bed8"/></svg>