<svg xmlns="http://www.w3.org/2000/svg" viewBox="0 0 36.94 50"><title>icon-payroll-structure</title><path d="M32.93,0H4A4,4,0,0,0,0,4V39.57a4,4,0,0,0,1.18,2.84l6.42,6.42A4,4,0,0,0,10.43,50h22.5a4,4,0,0,0,4-4V4A4,4,0,0,0,32.93,0ZM4.74,42H8v3.21ZM34.16,46a1.24,1.24,0,0,1-1.23,1.23H10.73V40.66a1.39,1.39,0,0,0-1.39-1.39H2.78V4A1.24,1.24,0,0,1,4,2.78H32.93A1.24,1.24,0,0,1,34.16,4Z" fill="#a2bed8"/><path d="M29.89,7.32H19a1.39,1.39,0,0,0,0,2.78h10.9a1.39,1.39,0,0,0,0-2.78Z" fill="#a2bed8"/><path d="M29.89,15.71H7a1.39,1.39,0,0,0,0,2.78H29.89a1.39,1.39,0,0,0,0-2.78Z" fill="#a2bed8"/><path d="M29.89,24.1H19a1.39,1.39,0,0,0,0,2.78h10.9a1.39,1.39,0,0,0,0-2.78Z" fill="#a2bed8"/><path d="M29.89,32.49H7a1.39,1.39,0,0,0,0,2.78H29.89a1.39,1.39,0,0,0,0-2.78Z" fill="#a2bed8"/><path d="M29.89,40.89H15.42a1.39,1.39,0,0,0,0,2.78H29.89a1.39,1.39,0,0,0,0-2.78Z" fill="#a2bed8"/><path d="M9.28,12.6a1.39,1.39,0,0,0,2,0l5.82-5.82a1.39,1.39,0,1,0-2-2L10.26,9.65,8,7.42a1.39,1.39,0,0,0-2,2Z" fill="#a2bed8"/><path d="M9.28,28.52a1.39,1.39,0,0,0,2,0l5.82-5.82a1.39,1.39,0,1,0-2-2l-4.84,4.84L8,23.34a1.39,1.39,0,0,0-2,2Z" fill="#a2bed8"/></svg>