<svg xmlns="http://www.w3.org/2000/svg" viewBox="0 0 105.21 92.45"><defs><style>.cls-1{fill:#fff;isolation:isolate;}</style></defs><title>sidebar-logo-small_1</title><g id="Warstwa_2" data-name="Warstwa 2"><g id="Warstwa_1-2" data-name="Warstwa 1"><path class="cls-1" d="M60.33,68.68A11.11,11.11,0,0,0,49.22,57.57h0A11.06,11.06,0,0,0,38.38,71.18l-2.75,5-17.4-30h0L44.92,0H43.7A31.42,31.42,0,0,0,16.57,15.56h0l-.13.27L1.12,42a8.21,8.21,0,0,0,0,8.29L24,89.4a6.16,6.16,0,0,0,5.32,3h13a4.78,4.78,0,0,0,2.35-.62h0a4.78,4.78,0,0,0,1.67-1.57L53,79.1l-6.7,11.16h0l.07-.11,6.59-11h0A11.1,11.1,0,0,0,60.33,68.68ZM38.39,71.23h0l-2.74,5Zm-2.78,5,6.89,11.9L35.6,76.27Z"/><path class="cls-1" d="M105.21,46.27a8.2,8.2,0,0,0-1.12-4.14L81.24,3a6.16,6.16,0,0,0-5.32-3H63a4.78,4.78,0,0,0-2.4.62h0l1,1.68L60.6.62h0a4.78,4.78,0,0,0-1.67,1.57h0l-.07.11-6.59,11h0A11.1,11.1,0,0,0,56,34.88h0A11.08,11.08,0,0,0,66.84,21.26l2.75-5,17.4,30h0L60.3,92.45h1.22A31.42,31.42,0,0,0,88.64,76.89l.13-.27,15.32-26.2A8.2,8.2,0,0,0,105.21,46.27Z"/></g></g></svg>