<svg xmlns="http://www.w3.org/2000/svg" viewBox="0 0 43.73 42"><defs><style>.cls-1{fill:none;stroke:#175d9d;stroke-miterlimit:10;stroke-width:2px;}</style></defs><title>sidebar-ico-my-team</title><g id="Warstwa_2" data-name="Warstwa 2"><g id="page_1_-home" data-name="page 1 -home"><g id="panel_boczny" data-name="panel boczny"><g id="ikony"><path class="cls-1" d="M13.46,2.46A4.1,4.1,0,0,1,7.72,8.2a2.22,2.22,0,0,1-.66-.66A4.1,4.1,0,0,1,12.8,1.8,2.22,2.22,0,0,1,13.46,2.46Z"/><path class="cls-1" d="M10.26,20.8a11.58,11.58,0,0,0,9.13-4.45,9.75,9.75,0,0,0-18.25,0A11.58,11.58,0,0,0,10.26,20.8Z"/><path class="cls-1" d="M36.67,2.46A4.1,4.1,0,0,1,30.93,8.2a2.22,2.22,0,0,1-.66-.66A4.1,4.1,0,0,1,36,1.8,2.22,2.22,0,0,1,36.67,2.46Z"/><path class="cls-1" d="M33.47,20.8a11.58,11.58,0,0,0,9.13-4.45,9.75,9.75,0,0,0-18.25,0A11.58,11.58,0,0,0,33.47,20.8Z"/><path class="cls-1" d="M25.07,22.66a4.1,4.1,0,0,1-5.74,5.74,2.22,2.22,0,0,1-.66-.66A4.1,4.1,0,0,1,24.41,22,2.22,2.22,0,0,1,25.07,22.66Z"/><path class="cls-1" d="M21.87,41A11.58,11.58,0,0,0,31,36.55a9.75,9.75,0,0,0-18.25,0A11.58,11.58,0,0,0,21.87,41Z"/></g></g></g></g></svg>