<svg xmlns="http://www.w3.org/2000/svg" viewBox="0 0 117.07 37.81"><defs><style>.cls-1{fill:#fff;}</style></defs><title>Zasób 4</title><g id="Warstwa_2" data-name="Warstwa 2"><g id="Warstwa_1-2" data-name="Warstwa 1"><path class="cls-1" d="M23.71,23.31a.63.63,0,0,1,0,.07l-.18.67a25.93,25.93,0,0,1-.86,2.53l-.34.78c-.07.18-.16.35-.24.52-.16.34-.34.69-.53,1l-.14.26a16.77,16.77,0,0,1-1,1.54l-.34.47q-.27.36-.57.72l-.42.47-.08.09-.35.37-.23.22-.25.25-.5.44-.18.16-.53.42-.81.57-.28.18-.53.33c-.29.17-.59.33-.92.49l-.14.07c-.33.16-.66.3-1,.44l-.95.35-.45.15-.32.09-.39.11-.72.18-1.83.32c-.43,0-.87.1-1.34.13l-.41,0-.48,0-.51,0H5.07l-.46-.07a5.3,5.3,0,0,1-3-1.73A6.54,6.54,0,0,1,0,31.77a1.77,1.77,0,0,1,0-.23V19.67A20.2,20.2,0,0,1,19.2,0h3.55C11.86,5.2,11.31,18.85,11.29,20a8.93,8.93,0,0,0-.06,1v4.14h7.72A7.12,7.12,0,0,0,23,23.85,5.87,5.87,0,0,0,23.71,23.31Z"/><path class="cls-1" d="M37.81,19.08A20.31,20.31,0,0,1,18.92,37.81H15.05a17.92,17.92,0,0,0,7.4-6.52,27.53,27.53,0,0,0,4-12.29c0-.43.05-.75.06-1l0-.64a5.82,5.82,0,0,0,0-.59V12.67H18.81a5.93,5.93,0,0,0-.84.06l-.26,0a6.91,6.91,0,0,0-.68.14l-.19,0a7.93,7.93,0,0,0-.78.28l-.13.07c-.22.1-.44.21-.65.33a7.65,7.65,0,0,0-1.19.86c.19-.76.43-1.56.72-2.38C16.75,6.7,21.29.2,31.92,0h.44c.21,0,.41,0,.62.06h0a3.31,3.31,0,0,1,.47.1l.1,0,.35.1.18.08L34.4.5l.17.09.25.14L35,.84l.28.2.13.09.24.21.13.12a4,4,0,0,1,.35.36l.15.18a6.57,6.57,0,0,1,1.51,4.06v10Z"/><path class="cls-1" d="M55.41,10.15q-4.11,0-4.11,2.72a2.06,2.06,0,0,0,1,1.85,26.35,26.35,0,0,0,4.77,1.85,13.19,13.19,0,0,1,5.26,2.74A6.45,6.45,0,0,1,63.86,24a7.56,7.56,0,0,1-2.45,6.11A9.6,9.6,0,0,1,55,32.18a35.66,35.66,0,0,1-7.21-.91L46.43,31,47,27a62.75,62.75,0,0,0,7.74.68q4,0,4-3.32a2.21,2.21,0,0,0-.92-1.89A13.09,13.09,0,0,0,54.09,21a15,15,0,0,1-6.17-3,6.3,6.3,0,0,1-1.79-4.77A6.93,6.93,0,0,1,48.46,7.5a10,10,0,0,1,6.42-1.89A42.65,42.65,0,0,1,62,6.37l1.36.26-.42,4.11Q57.6,10.15,55.41,10.15Z"/><path class="cls-1" d="M77.48,24.26H73.26v7.47H68.05V6.07h9.43q9.13,0,9.13,8.91,0,4.49-2.32,6.89T77.48,24.26Zm-4.23-4.45h4.19q3.89,0,3.89-4.83a5,5,0,0,0-.94-3.42,3.79,3.79,0,0,0-2.94-1H73.26Z"/><path class="cls-1" d="M90.28,31.73V6.07h8.87l4.53,18.72L108.2,6.07h8.87V31.73h-5.21V11.88h-.57l-5,18.72h-5.21l-5-18.72h-.57V31.73Z"/></g></g></svg>