<svg xmlns="http://www.w3.org/2000/svg" viewBox="0 0 29.58 40"><defs><style>.cls-1{fill:#175d9d;}</style></defs><title>sidebar-ico-development</title><g id="Warstwa_2" data-name="Warstwa 2"><g id="page_1_-home" data-name="page 1 -home"><g id="panel_boczny" data-name="panel boczny"><g id="ikony"><polygon class="cls-1" points="21.08 24.59 18.57 24.59 18.57 12.28 23.53 12.28 14.79 3.55 6.06 12.28 11.01 12.28 11.01 24.59 8.5 24.59 8.5 14.79 0 14.79 14.79 0 29.58 14.79 21.08 14.79 21.08 24.59"/><line class="cls-1" x1="19.83" y1="29.97" x2="19.83" y2="27.46"/><rect class="cls-1" x="18.57" y="27.46" width="2.51" height="2.51"/><line class="cls-1" x1="9.75" y1="27.46" x2="9.75" y2="29.97"/><rect class="cls-1" x="8.5" y="27.46" width="2.51" height="2.51"/><line class="cls-1" x1="19.83" y1="34.98" x2="19.83" y2="32.47"/><rect class="cls-1" x="18.57" y="32.47" width="2.51" height="2.51"/><line class="cls-1" x1="9.75" y1="32.47" x2="9.75" y2="34.98"/><rect class="cls-1" x="8.5" y="32.47" width="2.51" height="2.51"/><line class="cls-1" x1="19.83" y1="40" x2="19.83" y2="37.49"/><rect class="cls-1" x="18.57" y="37.49" width="2.51" height="2.51"/><line class="cls-1" x1="9.75" y1="37.49" x2="9.75" y2="40"/><rect class="cls-1" x="8.5" y="37.49" width="2.51" height="2.51"/></g></g></g></g></svg>