<?xml version="1.0" encoding="utf-8"?>
<!-- Generator: Adobe Illustrator 21.1.0, SVG Export Plug-In . SVG Version: 6.00 Build 0)  -->
<svg version="1.1" id="Warstwa_1" xmlns="http://www.w3.org/2000/svg" xmlns:xlink="http://www.w3.org/1999/xlink" x="0px" y="0px"
	 viewBox="0 0 32.1 45" style="enable-background:new 0 0 32.1 45;" xml:space="preserve">
<style type="text/css">
	.st0{fill:#175D9D;}
	.st1{fill:#F3F6FA;}
	.st2{fill:none;}
</style>
<title>Zasób 1</title>
<path class="st0" d="M32.1,45H0V5.7h32.1V45z M1.4,43.6h29.3V7.1H1.4V43.6z"/>
<polygon class="st1" points="23.2,8.7 8.9,8.7 10.5,4.2 21.6,4.2 "/>
<path class="st0" d="M24.2,9.4H7.8L10,3.5h12.1L24.2,9.4z M9.9,8h12.4l-1.1-3H11L9.9,8z"/>
<path class="st1" d="M16,0.7L16,0.7c-1.2,0-2.2,1-2.2,2.2l0,0l0,0c0,1.2,1,2.2,2.2,2.2l0,0c1.2,0,2.2-1,2.2-2.2l0,0
	C18.2,1.7,17.2,0.7,16,0.7z"/>
<path class="st0" d="M16,5.8c-1.6,0-2.9-1.3-2.9-3c0-1.6,1.3-2.9,3-2.9S19,1.3,19,3C18.9,4.5,17.7,5.8,16,5.8L16,5.8z M16,1.4
	c-0.8,0-1.5,0.7-1.5,1.5s0.7,1.5,1.5,1.5s1.5-0.7,1.5-1.5S16.8,1.4,16,1.4C16,1.4,16,1.4,16,1.4z"/>
<line class="st2" x1="6.3" y1="27.4" x2="17.5" y2="27.4"/>
<rect x="6.3" y="26.7" class="st0" width="11.2" height="1.4"/>
<line class="st2" x1="6.3" y1="31.6" x2="17.5" y2="31.6"/>
<rect x="6.3" y="30.9" class="st0" width="11.2" height="1.4"/>
<line class="st2" x1="6.3" y1="35.7" x2="17.5" y2="35.7"/>
<rect x="6.3" y="35" class="st0" width="11.2" height="1.4"/>
<line class="st2" x1="20.9" y1="27.4" x2="25.8" y2="27.4"/>
<rect x="20.9" y="26.7" class="st0" width="4.9" height="1.4"/>
<line class="st2" x1="20.9" y1="31.6" x2="25.8" y2="31.6"/>
<rect x="20.9" y="30.9" class="st0" width="4.9" height="1.4"/>
<line class="st2" x1="20.9" y1="35.7" x2="25.8" y2="35.7"/>
<rect x="20.9" y="35" class="st0" width="4.9" height="1.4"/>
</svg>
