<svg xmlns="http://www.w3.org/2000/svg" viewBox="0 0 258.81 92.45"><title>Zasób 11</title><path d="M147.93,31.83q-7.4,0-7.4,4.88A3.7,3.7,0,0,0,142.37,40a47.53,47.53,0,0,0,8.58,3.32q6.75,2.17,9.47,4.92t2.71,8.45q0,7.26-4.41,11t-11.54,3.73a64.19,64.19,0,0,1-13-1.63l-2.44-.47,1-7.26a113,113,0,0,0,13.91,1.22q7.19,0,7.19-6a4,4,0,0,0-1.66-3.39,23.55,23.55,0,0,0-6.62-2.65q-7.87-2.24-11.09-5.33t-3.22-8.58q0-6.92,4.21-10.31T147,23.69A76.68,76.68,0,0,1,159.74,25l2.44.48-.75,7.4Q151.87,31.83,147.93,31.83Z" fill="#fff"/><path d="M187.63,57.21H180V70.64h-9.36V24.5h17q16.42,0,16.42,16,0,8.08-4.17,12.38T187.63,57.21Zm-7.6-8h7.53q7,0,7-8.69,0-4.27-1.7-6.14t-5.29-1.87H180Z" fill="#fff"/><path d="M210.63,70.64V24.5h15.95l8.14,33.66,8.14-33.66h15.95V70.64h-9.36V34.95h-1l-9,33.66H230l-9-33.66h-1V70.64Z" fill="#fff"/><path d="M60.33,68.68A11.11,11.11,0,0,0,49.22,57.57h0A11.06,11.06,0,0,0,38.38,71.18l-2.75,5-17.4-30,0,0L44.92,0H43.7A31.42,31.42,0,0,0,16.57,15.56h0l-.13.27L1.12,42a8.21,8.21,0,0,0,0,8.29L24,89.4a6.16,6.16,0,0,0,5.32,3h13a4.78,4.78,0,0,0,2.35-.62h0a4.78,4.78,0,0,0,1.67-1.57l6.64-11.11L46.28,90.26l0,0,.07-.11,6.59-11h0v0A11.1,11.1,0,0,0,60.33,68.68ZM38.39,71.23h0l-2.74,5Zm-2.78,5,6.89,11.9L35.6,76.27Z" fill="#fff" opacity="0.8"/><path d="M105.21,46.27a8.2,8.2,0,0,0-1.12-4.14L81.24,3a6.16,6.16,0,0,0-5.32-3H63A4.78,4.78,0,0,0,60.6.62h0l1,1.68L60.6.62h0a4.78,4.78,0,0,0-1.67,1.57l0,0-.07.11-6.59,11h0v0A11.1,11.1,0,0,0,56,34.88h0A11.08,11.08,0,0,0,66.84,21.26l2.75-5,17.4,30,0,0L60.3,92.45h1.22A31.42,31.42,0,0,0,88.64,76.89l.13-.27,15.32-26.2A8.2,8.2,0,0,0,105.21,46.27Z" fill="#fff" opacity="0.8"/><path d="M60.33,68.68A11.11,11.11,0,0,0,49.22,57.57h0A11.06,11.06,0,0,0,38.38,71.18l-2.75,5-17.4-30,0,0L44.92,0H43.7A31.42,31.42,0,0,0,16.57,15.56h0l-.13.27L1.12,42a8.21,8.21,0,0,0,0,8.29L24,89.4a6.16,6.16,0,0,0,5.32,3h13a4.78,4.78,0,0,0,2.35-.62h0a4.78,4.78,0,0,0,1.67-1.57l6.64-11.11L46.28,90.26l0,0,.07-.11,6.59-11h0v0A11.1,11.1,0,0,0,60.33,68.68ZM38.39,71.23h0l-2.74,5Zm-2.78,5,6.89,11.9L35.6,76.27Z" fill="#fff" opacity="0.8"/><path d="M105.21,46.27a8.2,8.2,0,0,0-1.12-4.14L81.24,3a6.16,6.16,0,0,0-5.32-3H63A4.78,4.78,0,0,0,60.6.62h0l1,1.68L60.6.62h0a4.78,4.78,0,0,0-1.67,1.57l0,0-.07.11-6.59,11h0v0A11.1,11.1,0,0,0,56,34.88h0A11.08,11.08,0,0,0,66.84,21.26l2.75-5,17.4,30,0,0L60.3,92.45h1.22A31.42,31.42,0,0,0,88.64,76.89l.13-.27,15.32-26.2A8.2,8.2,0,0,0,105.21,46.27Z" fill="#fff" opacity="0.8"/><path d="M60.33,68.68A11.11,11.11,0,0,0,49.22,57.57h0A11.06,11.06,0,0,0,38.38,71.18l-2.75,5-17.4-30,0,0L44.92,0H43.7A31.42,31.42,0,0,0,16.57,15.56h0l-.13.27L1.12,42a8.21,8.21,0,0,0,0,8.29L24,89.4a6.16,6.16,0,0,0,5.32,3h13a4.78,4.78,0,0,0,2.35-.62h0a4.78,4.78,0,0,0,1.67-1.57l6.64-11.11L46.28,90.26l0,0,.07-.11,6.59-11h0v0A11.1,11.1,0,0,0,60.33,68.68ZM38.39,71.23h0l-2.74,5Zm-2.78,5,6.89,11.9L35.6,76.27Z" fill="#fff" opacity="0.8"/><path d="M105.21,46.27a8.2,8.2,0,0,0-1.12-4.14L81.24,3a6.16,6.16,0,0,0-5.32-3H63A4.78,4.78,0,0,0,60.6.62h0l1,1.68L60.6.62h0a4.78,4.78,0,0,0-1.67,1.57l0,0-.07.11-6.59,11h0v0A11.1,11.1,0,0,0,56,34.88h0A11.08,11.08,0,0,0,66.84,21.26l2.75-5,17.4,30,0,0L60.3,92.45h1.22A31.42,31.42,0,0,0,88.64,76.89l.13-.27,15.32-26.2A8.2,8.2,0,0,0,105.21,46.27Z" fill="#fff" opacity="0.8"/><path d="M60.33,68.68A11.11,11.11,0,0,0,49.22,57.57h0A11.06,11.06,0,0,0,38.38,71.18l-2.75,5-17.4-30,0,0L44.92,0H43.7A31.42,31.42,0,0,0,16.57,15.56h0l-.13.27L1.12,42a8.21,8.21,0,0,0,0,8.29L24,89.4a6.16,6.16,0,0,0,5.32,3h13a4.78,4.78,0,0,0,2.35-.62h0a4.78,4.78,0,0,0,1.67-1.57l6.64-11.11L46.28,90.26l0,0,.07-.11,6.59-11h0v0A11.1,11.1,0,0,0,60.33,68.68ZM38.39,71.23h0l-2.74,5Zm-2.78,5,6.89,11.9L35.6,76.27Z" fill="#fff" opacity="0.8"/><path d="M105.21,46.27a8.2,8.2,0,0,0-1.12-4.14L81.24,3a6.16,6.16,0,0,0-5.32-3H63A4.78,4.78,0,0,0,60.6.62h0l1,1.68L60.6.62h0a4.78,4.78,0,0,0-1.67,1.57l0,0-.07.11-6.59,11h0v0A11.1,11.1,0,0,0,56,34.88h0A11.08,11.08,0,0,0,66.84,21.26l2.75-5,17.4,30,0,0L60.3,92.45h1.22A31.42,31.42,0,0,0,88.64,76.89l.13-.27,15.32-26.2A8.2,8.2,0,0,0,105.21,46.27Z" fill="#fff" opacity="0.8"/></svg>