<svg xmlns="http://www.w3.org/2000/svg" viewBox="0 0 52.57 50"><defs><style>.cls-1{fill:#175d9d;}</style></defs><title>sidebar-ico-benefits</title><g id="Warstwa_2" data-name="Warstwa 2"><g id="page_1_-home" data-name="page 1 -home"><g id="panel_boczny" data-name="panel boczny"><g id="ikony"><path class="cls-1" d="M10,50l3.1-18.09L0,19.1l18.16-2.64L26.29,0l8.12,16.46L52.57,19.1,39.43,31.91,42.53,50,26.29,41.46ZM26.29,38l12.19,6.41L36.15,30.84,46,21.23l-13.62-2L26.29,6.91,20.19,19.25l-13.62,2,9.86,9.61L14.1,44.41Z"/><polygon class="cls-1" points="21.36 29.24 16.43 24.43 23.24 23.45 26.29 17.27 29.34 23.45 36.15 24.43 31.22 29.24 32.38 36.03 26.29 32.83 20.19 36.03 21.36 29.24"/></g></g></g></g></svg>