<?xml version="1.0" encoding="utf-8"?>
<!-- Generator: Adobe Illustrator 21.1.0, SVG Export Plug-In . SVG Version: 6.00 Build 0)  -->
<svg version="1.1" id="Warstwa_1" xmlns="http://www.w3.org/2000/svg" xmlns:xlink="http://www.w3.org/1999/xlink" x="0px" y="0px"
	 viewBox="0 0 37.8 37.8" style="enable-background:new 0 0 37.8 37.8;" xml:space="preserve">
<style type="text/css">
	.st0{fill:#FFFFFF;}
</style>
<title>Zasób 4</title>
<path class="st0" d="M23.7,23.3C23.7,23.3,23.7,23.4,23.7,23.3l-0.2,0.7c-0.2,0.9-0.5,1.7-0.9,2.5l-0.3,0.8
	c-0.1,0.2-0.2,0.4-0.2,0.5c-0.2,0.3-0.3,0.7-0.5,1l-0.1,0.3c-0.3,0.5-0.6,1-1,1.5l-0.3,0.5c-0.2,0.2-0.4,0.5-0.6,0.7l-0.4,0.5
	L19,32.4l-0.4,0.4L18.4,33l-0.3,0.3l-0.5,0.4l-0.2,0.2L17,34.3l-0.8,0.6L15.9,35l-0.5,0.3c-0.3,0.2-0.6,0.3-0.9,0.5l-0.1,0.1
	c-0.3,0.2-0.7,0.3-1,0.4l-0.9,0.3l-0.4,0.2L11.6,37l-0.4,0.1l-0.7,0.2l-1.8,0.3c-0.4,0-0.9,0.1-1.3,0.1H6.9H6.4H5.9H5.1l-0.5-0.1
	c-1.2-0.2-2.2-0.8-3-1.7c-1-1.1-1.6-2.6-1.6-4.1c0-0.1,0-0.2,0-0.2V19.7C0.3,9.1,8.6,0.5,19.2,0h3.5C11.9,5.2,11.3,18.9,11.3,20
	c0,0.3-0.1,0.7-0.1,1v4.1h7.7c1.4,0,2.9-0.5,4.1-1.3C23.3,23.7,23.5,23.5,23.7,23.3z"/>
<path class="st0" d="M37.8,19.1C37,29.2,29,37.1,18.9,37.8h-3.9c3-1.4,5.6-3.7,7.4-6.5c2.3-3.7,3.7-7.9,4-12.3c0-0.4,0-0.8,0.1-1
	v-0.6c0-0.2,0-0.4,0-0.6v-4.1h-7.7c-0.3,0-0.6,0-0.8,0.1h-0.3c-0.2,0-0.5,0.1-0.7,0.1h-0.2c-0.3,0.1-0.5,0.2-0.8,0.3l-0.1,0.1
	c-0.2,0.1-0.4,0.2-0.6,0.3c-0.4,0.2-0.8,0.5-1.2,0.9c0.2-0.8,0.4-1.6,0.7-2.4c1.9-5.3,6.5-11.8,17.1-12h0.4c0.2,0,0.4,0,0.6,0.1l0,0
	c0.2,0,0.3,0.1,0.5,0.1h0.1l0.3,0.1l0.2,0.1l0.3,0.2l0.2,0.1l0.3,0.1L35,0.8L35.3,1l0.1,0.1l0.2,0.2l0.1,0.1
	c0.1,0.1,0.2,0.2,0.3,0.4L36.3,2c0.9,1.1,1.5,2.6,1.5,4.1v10L37.8,19.1z"/>
</svg>
