<svg xmlns="http://www.w3.org/2000/svg" viewBox="0 0 42.61 50.5"><defs><style>.cls-1{fill:#175d9d;stroke:#175d9d;stroke-miterlimit:10;stroke-width:0.5px;}</style></defs><title>sidebar-ico-organisation</title><g id="Warstwa_2" data-name="Warstwa 2"><g id="page_1_-home" data-name="page 1 -home"><g id="panel_boczny" data-name="panel boczny"><g id="ikony"><polygon class="cls-1" points="9.51 39.21 8.46 39.21 8.46 35.05 33.1 35.05 33.1 29.51 34.15 29.51 34.15 36.02 9.51 36.02 9.51 39.21"/><path class="cls-1" d="M23.87,6.22H18.73V2.82a2.57,2.57,0,1,1,5.14,0ZM20,5h2.68V2.82a1.34,1.34,0,1,0-2.68,0Z"/><polygon class="cls-1" points="39.78 30.52 2.82 30.52 2.82 29.29 38.55 29.29 38.55 6.22 4.05 6.22 4.05 30.55 2.82 30.55 2.82 4.99 39.78 4.99 39.78 30.52"/><path class="cls-1" d="M17.71,50.25H.25V38.68H17.71ZM1.3,49.2H16.66V39.73H1.3Z"/><path class="cls-1" d="M42.36,50.25H24.9V38.68H42.36Zm-16.41-1H41.31V39.73H25.95Z"/><rect class="cls-1" x="33.1" y="35.25" width="1.05" height="3.96"/></g></g></g></g></svg>