<?xml version="1.0" encoding="utf-8"?>
<!-- Generator: Adobe Illustrator 21.1.0, SVG Export Plug-In . SVG Version: 6.00 Build 0)  -->
<svg version="1.1" id="Warstwa_1" xmlns="http://www.w3.org/2000/svg" xmlns:xlink="http://www.w3.org/1999/xlink" x="0px" y="0px"
	 viewBox="0 0 32.2 45" style="enable-background:new 0 0 32.2 45;" xml:space="preserve">
<style type="text/css">
	.st0{fill:#175D9D;}
</style>
<title>Zasób 3</title>
<g id="Warstwa_2">
	<g id="dashboard">
		<g id="panel_boczny_kopia">
			<g id="ikony_kopia">
				<path class="st0" d="M16.1,45C7.2,45,0,38.9,0,31.4C0,24.3,7,10,16.1,10s16.1,14.3,16.1,21.4C32.2,38.9,25,45,16.1,45z M16.1,12
					C8.4,12,2,24.9,2,31.4S8.3,43,16.1,43s14.1-5.2,14.1-11.6S23.8,12,16.1,12z"/>
				<path class="st0" d="M10.6,14.1l-3.4-12L8,1.8c5.2-2.4,11.1-2.4,16.3,0L25,2.2l-3.4,12l-1.1-0.7c-2.7-1.9-6.2-1.9-8.8,0
					L10.6,14.1z M16.1,10c1.5,0,3,0.4,4.3,1.1l2.2-7.9c-4.2-1.7-8.9-1.7-13.1,0l2.2,7.9C13.1,10.4,14.6,10,16.1,10z"/>
				<path class="st0" d="M16.1,27.3c-0.8,0-1.5-0.7-1.5-1.5s0.7-1.5,1.5-1.5s1.5,0.7,1.5,1.5v0h1.5c0-1.4-0.9-2.6-2.2-2.9v-1.1h-1.5
					v1.1c-1.6,0.4-2.6,2-2.2,3.6c0.3,1.4,1.6,2.3,3,2.3c0.8,0,1.5,0.7,1.5,1.5c0,0.8-0.7,1.5-1.5,1.5s-1.5-0.7-1.5-1.5c0,0,0,0,0,0
					h-1.6c0,1.4,0.9,2.6,2.2,2.9v1.1h1.5v-1.1c1.6-0.4,2.6-2,2.2-3.6C18.7,28.2,17.5,27.2,16.1,27.3L16.1,27.3z"/>
			</g>
		</g>
	</g>
</g>
</svg>
