<svg xmlns="http://www.w3.org/2000/svg" viewBox="0 0 40.19 40"><defs><style>.cls-1{fill:#175d9d;}</style></defs><title>sidebar-ico-expenses</title><g id="Warstwa_2" data-name="Warstwa 2"><g id="page_1_-home" data-name="page 1 -home"><g id="panel_boczny" data-name="panel boczny"><g id="ikony"><path class="cls-1" d="M19.05,40A20,20,0,1,1,21.14,0a20,20,0,0,1-1.06,40ZM2.26,19.11a17.76,17.76,0,0,0,16.9,18.63A17.83,17.83,0,0,0,37.93,20.89,17.76,17.76,0,0,0,21,2.26l-.92,0A17.83,17.83,0,0,0,2.26,19.11Z"/><path class="cls-1" d="M20.1,18.8a2.27,2.27,0,1,1,2.27-2.27h2.41A4.67,4.67,0,0,0,21.3,12V10.27H18.89V12a4.66,4.66,0,0,0,1.2,9.17,2.27,2.27,0,1,1-2.27,2.27H15.42A4.67,4.67,0,0,0,18.89,28v1.76H21.3V28a4.66,4.66,0,0,0-1.2-9.17Z"/><line class="cls-1" x1="10.88" y1="21.12" x2="10.88" y2="18.88"/><rect class="cls-1" x="9.76" y="18.88" width="2.24" height="2.24"/><line class="cls-1" x1="29.31" y1="21.12" x2="29.31" y2="18.88"/><rect class="cls-1" x="28.19" y="18.88" width="2.24" height="2.24"/></g></g></g></g></svg>