<svg xmlns="http://www.w3.org/2000/svg" viewBox="0 0 40 40"><defs><style>.cls-1{fill:#175d9d;}</style></defs><title>sidebar-ico-audit</title><g id="Warstwa_2" data-name="Warstwa 2"><g id="page_1_-home" data-name="page 1 -home"><g id="panel_boczny" data-name="panel boczny"><g id="ikony"><polygon class="cls-1" points="40 40 0 40 0 5.57 40 5.57 40 40 38.36 40 38.36 7.21 1.64 7.21 1.64 38.36 40 38.36 40 40"/><path class="cls-1" d="M27.73,7.21H12.27V0H27.73ZM13.91,5.57H26.09V1.64H13.91Z"/><path class="cls-1" d="M20,24.78h0A64.48,64.48,0,0,1,1.59,22.1L0,21.62V5.43H40V21.61l-.57.18A64.43,64.43,0,0,1,20,24.78ZM1.64,20.4l.42.12a63.15,63.15,0,0,0,36.3-.12V7.07H1.64Z"/><line class="cls-1" x1="9.08" y1="12.64" x2="9.08" y2="14.29"/><rect class="cls-1" x="8.26" y="12.64" width="1.64" height="1.64"/><line class="cls-1" x1="14.54" y1="12.64" x2="14.54" y2="14.29"/><rect class="cls-1" x="13.72" y="12.64" width="1.64" height="1.64"/><line class="cls-1" x1="20" y1="12.64" x2="20" y2="14.29"/><rect class="cls-1" x="19.18" y="12.64" width="1.64" height="1.64"/><line class="cls-1" x1="25.46" y1="12.64" x2="25.46" y2="14.29"/><rect class="cls-1" x="24.64" y="12.64" width="1.64" height="1.64"/><line class="cls-1" x1="30.92" y1="12.64" x2="30.92" y2="14.29"/><rect class="cls-1" x="30.1" y="12.64" width="1.64" height="1.64"/><path class="cls-1" d="M20,27.49a2.22,2.22,0,0,0,2.22-2.22V19.72H17.78v5.55A2.22,2.22,0,0,0,20,27.49Z"/><path class="cls-1" d="M20,25.85h0a.82.82,0,0,1-.82-.82h0A.82.82,0,0,1,20,24.2h0a.82.82,0,0,1,.82.82h0A.82.82,0,0,1,20,25.85Z"/></g></g></g></g></svg>