<svg xmlns="http://www.w3.org/2000/svg" viewBox="0 0 50 50"><defs><style>.cls-1{fill:#175d9d;}</style></defs><title>sidebar-ico-time-off</title><g id="Warstwa_2" data-name="Warstwa 2"><g id="page_1_-home" data-name="page 1 -home"><g id="panel_boczny" data-name="panel boczny"><g id="ikony"><path class="cls-1" d="M5.69,46.11h0l-1,0L4,46l0-.7A18.41,18.41,0,0,1,13.33,28l.51-.28,8.41,8.41-.28.51A18.2,18.2,0,0,1,5.69,46.11Zm-.26-1.54a16.7,16.7,0,0,0,14.9-8.13l-6.77-6.76A16.85,16.85,0,0,0,5.44,44.56Z"/><path class="cls-1" d="M24,40.11,9.89,26l.12-.43C14.33,10,28,0,44.85,0c1.4,0,2.83.07,4.25.2l.63.06L49.8.9C51.58,19.56,41.39,35.27,24.45,40ZM11.62,25.53,24.47,38.38c15.74-4.6,25.25-19.25,23.85-36.7-1.16-.09-2.33-.14-3.47-.14C28.88,1.54,15.88,10.94,11.62,25.53Z"/><path class="cls-1" d="M12.43,19.21A22,22,0,0,0,9.35,19a21.6,21.6,0,0,0-6.46,1A20.13,20.13,0,0,1,20,9.16q.88-.8,1.82-1.53l-1.11,0A21.67,21.67,0,0,0,.7,21L0,22.74,1.71,22a20,20,0,0,1,7.65-1.5,20.43,20.43,0,0,1,2.39.15Q12.07,19.93,12.43,19.21Z"/><path class="cls-1" d="M40.84,30A20.13,20.13,0,0,1,30,47.11a21.62,21.62,0,0,0,.77-9.55q-.72.36-1.47.69a20.12,20.12,0,0,1-1.37,10L27.26,50,29,49.3a21.67,21.67,0,0,0,13.43-20q0-.55,0-1.1Q41.63,29.1,40.84,30Z"/></g></g></g></g></svg>