<svg xmlns="http://www.w3.org/2000/svg" viewBox="0 0 40 40"><defs><style>.cls-1{fill:#175d9d;}</style></defs><title>sidebar-ico-favorites</title><g id="Warstwa_2" data-name="Warstwa 2"><g id="page_1_-home" data-name="page 1 -home"><g id="panel_boczny" data-name="panel boczny"><g id="ikony"><path class="cls-1" d="M20,40h-.62V31.65H20A11.67,11.67,0,0,0,31.65,20v-.63H40V20A20,20,0,0,1,20,40Zm.63-7.11v5.85A18.77,18.77,0,0,0,38.74,20.63H32.89A12.92,12.92,0,0,1,20.63,32.89Z"/><path class="cls-1" d="M8.35,20.63H0V20A20,20,0,0,1,20,0h.63V8.34H20A11.67,11.67,0,0,0,8.35,20ZM1.26,19.38H7.11A12.92,12.92,0,0,1,19.38,7.11V1.26A18.77,18.77,0,0,0,1.26,19.38Z"/><path class="cls-1" d="M20.63,40H20A20,20,0,0,1,0,20v-.63H8.35V20A11.67,11.67,0,0,0,20,31.65h.63ZM1.26,20.63A18.77,18.77,0,0,0,19.38,38.74V32.89A12.92,12.92,0,0,1,7.11,20.63Z"/><path class="cls-1" d="M40,20.63H31.65V20A11.67,11.67,0,0,0,20,8.34h-.62V0H20A20,20,0,0,1,40,20Zm-7.11-1.25h5.85A18.77,18.77,0,0,0,20.63,1.26V7.11A12.92,12.92,0,0,1,32.89,19.38Z"/><path class="cls-1" d="M20,32.91A12.91,12.91,0,1,1,32.9,20,12.92,12.92,0,0,1,20,32.91ZM20,8.34A11.66,11.66,0,1,0,31.65,20,11.67,11.67,0,0,0,20,8.34Z"/><line class="cls-1" x1="8.22" y1="9.1" x2="9.1" y2="8.22"/><rect class="cls-1" x="8.04" y="8.04" width="1.25" height="1.25" transform="translate(-3.59 8.66) rotate(-44.99)"/><line class="cls-1" x1="30.9" y1="31.78" x2="31.78" y2="30.9"/><rect class="cls-1" x="30.71" y="30.71" width="1.25" height="1.25" transform="translate(-12.98 31.33) rotate(-44.99)"/><line class="cls-1" x1="30.89" y1="8.21" x2="31.78" y2="9.1"/><rect class="cls-1" x="30.71" y="8.03" width="1.25" height="1.25" transform="translate(3.06 24.69) rotate(-45)"/><line class="cls-1" x1="8.22" y1="30.9" x2="9.11" y2="31.79"/><rect class="cls-1" x="8.04" y="30.72" width="1.25" height="1.25" transform="translate(-19.63 15.31) rotate(-45)"/></g></g></g></g></svg>