<svg xmlns="http://www.w3.org/2000/svg" viewBox="0 0 210 210"><defs><style>.cls-1{fill:#175d9d;}.cls-2{fill:#e6eef6;}.cls-3{fill:#8fb1d0;}.cls-4{fill:#f39638;}</style></defs><title>t-audit</title><g id="Warstwa_2" data-name="Warstwa 2"><g id="page_1_-home" data-name="page 1 -home"><g id="str_1" data-name="str 1"><g id="ikony"><polygon class="cls-1" points="107.56 159.86 0 159.86 0 22.25 159.86 22.25 159.86 83.97 153.3 83.97 153.3 28.82 6.56 28.82 6.56 153.3 107.56 153.3 107.56 159.86"/><path class="cls-1" d="M110.84,28.81H49V0h61.82ZM55.58,22.25h48.7V6.56H55.58Z"/><path class="cls-2" d="M3.28,25V84l4,1.2A254.56,254.56,0,0,0,156.58,84h0V25Z"/><path class="cls-1" d="M80,99.05h0A257.7,257.7,0,0,1,6.36,88.31L0,86.42V21.71H159.86V86.38l-2.29.72A257.52,257.52,0,0,1,80,99.05ZM6.56,81.53l1.67.5a252.38,252.38,0,0,0,145.06-.47V28.27H6.56Z"/><path class="cls-3" d="M80,82.64a241.37,241.37,0,0,1-63.58-8.52v-36H143.46v36A241.1,241.1,0,0,1,80,82.64Z"/><line class="cls-2" x1="36.28" y1="50.54" x2="36.28" y2="57.1"/><rect class="cls-1" x="33" y="50.54" width="6.56" height="6.56"/><line class="cls-2" x1="58.11" y1="50.54" x2="58.11" y2="57.1"/><rect class="cls-1" x="54.82" y="50.54" width="6.56" height="6.56"/><line class="cls-2" x1="79.93" y1="50.54" x2="79.93" y2="57.1"/><rect class="cls-1" x="76.65" y="50.54" width="6.56" height="6.56"/><line class="cls-2" x1="101.76" y1="50.54" x2="101.76" y2="57.1"/><rect class="cls-1" x="98.48" y="50.54" width="6.56" height="6.56"/><line class="cls-2" x1="123.58" y1="50.54" x2="123.58" y2="57.1"/><rect class="cls-1" x="120.3" y="50.54" width="6.56" height="6.56"/><path class="cls-2" d="M79.93,113.14h0A12.14,12.14,0,0,1,67.8,101V75.54H92.07V101A12.14,12.14,0,0,1,79.93,113.14Z"/><path class="cls-1" d="M79.93,116.42A15.44,15.44,0,0,1,64.51,101V72.26H95.35V101A15.43,15.43,0,0,1,79.93,116.42Zm-8.86-37.6V101a8.85,8.85,0,1,0,17.71,0V78.82Z"/><path class="cls-1" d="M79.93,103.3h0A3.28,3.28,0,0,1,76.65,100h0a3.28,3.28,0,0,1,3.28-3.28h0A3.28,3.28,0,0,1,83.21,100h0A3.28,3.28,0,0,1,79.93,103.3Z"/><path class="cls-1" d="M162.15,142.14a23,23,0,1,1,23-23A23.07,23.07,0,0,1,162.15,142.14Zm0-39.53a16.48,16.48,0,1,0,16.48,16.48A16.5,16.5,0,0,0,162.15,102.61Z"/><path class="cls-1" d="M210,210H114.3V169.65c0-14.29,11.67-26.06,27.15-27.38l1.55-.13,1.08,1.11a25.15,25.15,0,0,0,36.13,0l1.08-1.11,1.55.13c15.48,1.32,27.15,13.1,27.15,27.38Zm-89.14-6.56h82.57V169.65c0-10.41-8.37-19.08-19.69-20.68a31.71,31.71,0,0,1-43.19,0c-11.33,1.6-19.69,10.27-19.69,20.68Z"/><path class="cls-4" d="M130.7,193.59V169.65c0-4.25,3.07-8.07,7.52-9.92a41.6,41.6,0,0,0,47.85,0c4.45,1.85,7.52,5.66,7.52,9.92v23.94Z"/><line class="cls-2" x1="144" y1="179.94" x2="144" y2="186.51"/><rect class="cls-1" x="140.72" y="179.94" width="6.56" height="6.56"/><line class="cls-2" x1="162.15" y1="179.94" x2="162.15" y2="186.51"/><rect class="cls-1" x="158.87" y="179.94" width="6.56" height="6.56"/><line class="cls-2" x1="180.3" y1="179.94" x2="180.3" y2="186.51"/><rect class="cls-1" x="177.02" y="179.94" width="6.56" height="6.56"/></g></g></g></g></svg>