<svg xmlns="http://www.w3.org/2000/svg" viewBox="0 0 223.55 225"><title>t-development</title><polyline points="190.49 123.08 206.82 106.76 220.06 120 220.06 73.68 173.73 73.68 186.98 86.92 170.65 103.25" fill="#e6eef6"/><polygon points="223.55 128.44 206.82 111.7 192.96 125.56 188.02 120.62 206.82 101.82 216.57 111.57 216.57 77.17 182.16 77.17 191.92 86.92 173.12 105.72 168.18 100.78 182.04 86.92 165.3 70.18 223.55 70.18 223.55 128.44" fill="#175d9d"/><line x1="179.91" y1="133.66" x2="184.85" y2="128.72" fill="#e6eef6"/><rect x="178.89" y="127.7" width="6.99" height="6.99" transform="translate(-39.35 167.39) rotate(-45)" fill="#175d9d"/><line x1="165.01" y1="108.88" x2="160.07" y2="113.82" fill="#e6eef6"/><rect x="159.05" y="107.86" width="6.99" height="6.99" transform="translate(-31.14 147.52) rotate(-44.99)" fill="#175d9d"/><line x1="170.03" y1="143.54" x2="174.97" y2="138.6" fill="#e6eef6"/><rect x="169.01" y="137.58" width="6.99" height="6.99" transform="translate(-49.23 163.26) rotate(-44.99)" fill="#175d9d"/><line x1="155.13" y1="118.76" x2="150.19" y2="123.7" fill="#e6eef6"/><rect x="149.17" y="117.74" width="6.99" height="6.99" transform="translate(-41.01 143.46) rotate(-45)" fill="#175d9d"/><polyline points="33.06 123.08 16.74 106.76 3.49 120 3.49 73.68 49.82 73.68 36.58 86.92 52.9 103.25" fill="#e6eef6"/><polygon points="0 128.44 0 70.18 58.25 70.18 41.52 86.92 55.37 100.78 50.43 105.72 31.64 86.92 41.39 77.17 6.99 77.17 6.99 111.57 16.74 101.82 35.53 120.62 30.59 125.56 16.74 111.7 0 128.44" fill="#175d9d"/><line x1="43.64" y1="133.66" x2="38.7" y2="128.72" fill="#e6eef6"/><rect x="37.68" y="127.7" width="6.99" height="6.99" transform="translate(-80.71 67.54) rotate(-45)" fill="#175d9d"/><line x1="58.54" y1="108.88" x2="63.48" y2="113.82" fill="#e6eef6"/><rect x="57.52" y="107.86" width="6.99" height="6.99" transform="translate(-60.87 75.77) rotate(-45.01)" fill="#175d9d"/><line x1="53.52" y1="143.54" x2="48.58" y2="138.6" fill="#e6eef6"/><rect x="47.56" y="137.58" width="6.99" height="6.99" transform="translate(-84.8 77.41) rotate(-44.99)" fill="#175d9d"/><line x1="68.42" y1="118.76" x2="73.36" y2="123.7" fill="#e6eef6"/><rect x="67.4" y="117.74" width="6.99" height="6.99" transform="translate(-64.96 85.62) rotate(-44.99)" fill="#175d9d"/><path d="M111.78,225a54.48,54.48,0,1,1,54.48-54.48A54.55,54.55,0,0,1,111.78,225Zm0-102a47.5,47.5,0,1,0,47.5,47.5A47.55,47.55,0,0,0,111.78,123Z" fill="#175d9d"/><polyline points="125.81 68.49 125.81 37.7 144.54 37.7 111.78 4.94 79.02 37.7 97.75 37.7 97.75 68.49" fill="#e6eef6"/><polygon points="129.3 68.49 122.31 68.49 122.31 34.21 136.1 34.21 111.78 9.88 87.45 34.21 101.24 34.21 101.24 68.49 94.25 68.49 94.25 41.19 70.58 41.19 111.78 0 152.97 41.19 129.3 41.19 129.3 68.49" fill="#175d9d"/><line x1="125.81" y1="83.45" x2="125.81" y2="76.47" fill="#e6eef6"/><rect x="122.31" y="76.47" width="6.99" height="6.99" fill="#175d9d"/><line x1="97.75" y1="76.47" x2="97.75" y2="83.45" fill="#e6eef6"/><rect x="94.26" y="76.47" width="6.99" height="6.99" fill="#175d9d"/><line x1="125.81" y1="97.43" x2="125.81" y2="90.44" fill="#e6eef6"/><rect x="122.31" y="90.44" width="6.99" height="6.99" fill="#175d9d"/><line x1="97.75" y1="90.44" x2="97.75" y2="97.43" fill="#e6eef6"/><rect x="94.26" y="90.44" width="6.99" height="6.99" fill="#175d9d"/><line x1="125.81" y1="111.4" x2="125.81" y2="104.41" fill="#e6eef6"/><rect x="122.31" y="104.41" width="6.99" height="6.99" fill="#175d9d"/><line x1="97.75" y1="104.41" x2="97.75" y2="111.4" fill="#e6eef6"/><rect x="94.26" y="104.41" width="6.99" height="6.99" fill="#175d9d"/><circle cx="111.78" cy="151.65" r="17.98" fill="#e74a23"/><path d="M111.78,221.51A45.11,45.11,0,0,0,147.47,204a36.83,36.83,0,0,0-71.38,0A45.11,45.11,0,0,0,111.78,221.51Z" fill="#e74a23"/><path d="M111.78,225a54.48,54.48,0,1,1,54.48-54.48A54.55,54.55,0,0,1,111.78,225Zm0-102a47.5,47.5,0,1,0,47.5,47.5A47.55,47.55,0,0,0,111.78,123Z" fill="#175d9d"/></svg>