<svg xmlns="http://www.w3.org/2000/svg" viewBox="0 0 207.52 210"><defs><style>.cls-1{fill:#175d9d;}.cls-2{fill:#e6eef6;}.cls-3{fill:#f39638;}</style></defs><title>t-expenses</title><g id="Warstwa_2" data-name="Warstwa 2"><g id="page_1_-home" data-name="page 1 -home"><g id="str_1" data-name="str 1"><g id="ikony"><path class="cls-1" d="M103.11,182h6.44v6.44h-6.44ZM116,182h6.44v6.44H116Zm12.87,0h6.44v6.44h-6.44Zm12.87,0h6.44v6.44h-6.44Zm12.87,0H161v6.44H154.6Zm12.87,0h6.44v6.44h-6.44Zm12.87,0h6.44v6.44h-6.44Zm12.87,0h6.44v6.44h-6.44Zm-103.35,5.8.81-6.39c2,.26,4.09.43,6.14.52l-.28,6.43C94.31,188.24,92.07,188.05,89.86,187.78ZM76.76,185l1.87-6.16c2,.59,4,1.11,6,1.54l-1.34,6.3C81.08,186.19,78.89,185.63,76.76,185Zm-12.45-5,2.88-5.76c1.84.92,3.73,1.77,5.62,2.52l-2.38,6C68.37,181.95,66.31,181,64.31,180Zm-11.43-7,3.82-5.18c1.64,1.21,3.36,2.37,5.1,3.44l-3.36,5.49C56.55,175.61,54.68,174.35,52.89,173Zm-10.06-8.87,4.66-4.44c1.4,1.48,2.89,2.91,4.43,4.27l-4.26,4.83C46,167.33,44.36,165.76,42.83,164.15Zm-8.36-10.51,5.37-3.54c1.12,1.7,2.33,3.37,3.6,5l-5,4C37,157.34,35.69,155.51,34.47,153.65Zm-6.34-11.86,5.93-2.49c.79,1.87,1.68,3.73,2.64,5.54l-5.68,3C30,145.89,29,143.84,28.13,141.79ZM24.1,129l6.29-1.34c.43,2,1,4,1.56,5.92l-6.14,1.93C25.14,133.34,24.56,131.14,24.1,129Zm-1.56-13.36,6.44-.14c0,2.06.19,4.12.42,6.11l-6.39.76C22.75,120.12,22.59,117.86,22.54,115.59Zm.17-6.73c.16-2.23.42-4.47.79-6.68l6.35,1.05c-.33,2-.58,4.06-.72,6.09Zm2.22-13.27c.58-2.16,1.26-4.32,2-6.41l6,2.23c-.7,1.91-1.33,3.87-1.85,5.84ZM29.58,83c1-2,2-4,3.18-5.93l5.52,3.3c-1,1.75-2,3.57-2.9,5.4Zm6.89-11.53c1.31-1.8,2.72-3.57,4.19-5.25l4.85,4.24c-1.35,1.54-2.64,3.15-3.83,4.8Zm8.84-10.11c1.61-1.54,3.31-3,5-4.43l4,5c-1.59,1.28-3.15,2.65-4.63,4.06Zm10.45-8.4c1.85-1.24,3.78-2.42,5.73-3.49l3.11,5.63c-1.79,1-3.55,2.07-5.26,3.21Zm11.73-6.49c2-.91,4.13-1.74,6.24-2.47l2.11,6.08c-1.94.67-3.86,1.44-5.73,2.27ZM80.15,42c2.16-.55,4.37-1,6.56-1.38L87.77,47c-2,.34-4.05.77-6,1.27Zm13.21-2.21c2.21-.18,4.46-.27,6.69-.27V46c-2.06,0-4.13.08-6.16.25Z"/><polygon class="cls-1" points="171.98 64.49 207.52 32.25 171.98 0 171.98 17.98 100.05 17.98 100.05 24.42 178.42 24.42 178.42 14.53 197.94 32.25 178.42 49.96 178.42 39.56 100.05 39.56 100.05 46 171.98 46 171.98 64.49"/><path class="cls-1" d="M106.19,203.56h6.44V210h-6.44Zm12.87,0h6.44V210h-6.44Zm12.87,0h6.44V210h-6.44Zm12.87,0h6.44V210h-6.44Zm12.87,0h6.44V210h-6.44Zm12.87,0H177V210h-6.44Zm12.87,0h6.44V210h-6.44Zm12.87,0h6.44V210H196.3ZM93.12,209.77l.42-6.42q3.09.2,6.23.21l0,6.44Q96.4,210,93.12,209.77ZM80,208.05l1.24-6.32q3,.6,6.14,1l-.83,6.38Q83.2,208.69,80,208.05Zm-12.83-3.4,2-6.1q2.93,1,6,1.79l-1.65,6.22C71.34,206,69.2,205.36,67.13,204.66Zm-12.3-5,2.83-5.78q2.79,1.36,5.68,2.55l-2.44,6C58.84,201.5,56.8,200.58,54.83,199.62ZM43.28,193l3.56-5.36c1.71,1.14,3.49,2.24,5.3,3.27l-3.19,5.59C47,195.4,45.11,194.23,43.28,193Zm-10.57-8.07,4.24-4.84c1.55,1.36,3.17,2.68,4.82,3.94l-3.9,5.12C36.1,187.81,34.37,186.39,32.71,184.94Zm-9.4-9.41,4.85-4.23c1.36,1.56,2.79,3.09,4.25,4.55l-4.55,4.55C26.3,178.84,24.77,177.21,23.31,175.54Zm-8-10.6,5.39-3.52c1.12,1.71,2.33,3.42,3.58,5.07l-5.13,3.89C17.76,168.6,16.47,166.77,15.27,164.93ZM8.78,153.32l5.83-2.73c.87,1.86,1.83,3.72,2.83,5.51l-5.61,3.14C10.74,157.31,9.71,155.32,8.78,153.32ZM4,140.91,10.15,139c.61,2,1.29,3.95,2,5.86l-6,2.31C5.37,145.15,4.64,143,4,140.91Zm-3-13,6.36-1c.31,2,.7,4.08,1.15,6.09l-6.28,1.42C1.79,132.3,1.38,130.1,1,127.91ZM0,114.64l6.44,0c0,2.08.1,4.16.26,6.2l-6.42.5C.11,119.11,0,116.87,0,114.64ZM.19,108c.14-2.21.37-4.44.67-6.63l6.37.88c-.28,2-.49,4.11-.62,6.16ZM2,94.79c.46-2.16,1-4.34,1.62-6.47l6.18,1.79c-.58,2-1.08,4-1.51,6ZM5.71,82c.77-2.08,1.62-4.15,2.54-6.17l5.86,2.66c-.85,1.88-1.65,3.8-2.36,5.74Zm5.5-12.14c1.06-2,2.19-3.88,3.38-5.74L20,67.56c-1.1,1.73-2.16,3.53-3.14,5.35Zm7.14-11.23c1.31-1.77,2.7-3.53,4.13-5.21l4.9,4.17c-1.34,1.57-2.63,3.21-3.86,4.87ZM27,48.49c1.54-1.58,3.16-3.13,4.8-4.6l4.29,4.79C34.52,50,33,51.5,31.57,53Zm9.89-8.87c1.75-1.37,3.55-2.69,5.36-3.92L45.83,41q-2.57,1.76-5,3.67Zm11-7.48c1.9-1.12,3.86-2.19,5.82-3.18l2.9,5.75q-2.79,1.4-5.45,3Zm11.85-6q3-1.29,6.19-2.4L68,29.83q-2.95,1-5.81,2.25Zm12.53-4.39c2.12-.59,4.3-1.12,6.45-1.57L80,26.49q-3.06.64-6,1.48Zm13-2.73q3.27-.47,6.6-.73l.5,6.42q-3.13.25-6.18.69Zm13.23-1H100v6.44H98.5Z"/><path class="cls-2" d="M112,60.29a54.38,54.38,0,1,0,51.73,57A54.65,54.65,0,0,0,112,60.29Z"/><path class="cls-1" d="M106.14,172.11a57.6,57.6,0,1,1,46.07-96,57,57,0,0,1,14.71,41.43,57.79,57.79,0,0,1-57.82,54.68Q107.63,172.18,106.14,172.11ZM57.79,112a51.15,51.15,0,0,0,48.68,53.66,51.36,51.36,0,0,0,54-48.52A51.15,51.15,0,0,0,111.82,63.5c-.88,0-1.76-.07-2.64-.07A51.35,51.35,0,0,0,57.79,112Z"/><path class="cls-3" d="M109.1,156.09a41.71,41.71,0,0,0,41.76-39.44,41,41,0,0,0-10.59-29.81,41.49,41.49,0,0,0-28.93-13.7c-.72,0-1.44-.05-2.15-.05a41.71,41.71,0,0,0-41.76,39.43A41,41,0,0,0,78,142.33,41.5,41.5,0,0,0,107,156C107.67,156.08,108.39,156.09,109.1,156.09Z"/><path class="cls-1" d="M109.15,111.12a6.53,6.53,0,1,1,6.53-6.53h6.93a13.45,13.45,0,0,0-10-13V86.56h-6.93v5.07a13.43,13.43,0,0,0,3.47,26.42,6.53,6.53,0,1,1-6.53,6.53H95.68a13.45,13.45,0,0,0,10,13v5.07h6.93v-5.07a13.43,13.43,0,0,0-3.47-26.42Z"/><line class="cls-2" x1="82.61" y1="117.81" x2="82.61" y2="111.38"/><rect class="cls-1" x="79.4" y="111.38" width="6.44" height="6.44"/><line class="cls-2" x1="135.67" y1="117.81" x2="135.67" y2="111.38"/><rect class="cls-1" x="132.45" y="111.38" width="6.44" height="6.44"/></g></g></g></g></svg>