<svg xmlns="http://www.w3.org/2000/svg" viewBox="0 0 225 225"><title>t-favorites</title><path d="M112.5,225H109V178.06h3.52a65.63,65.63,0,0,0,65.56-65.56V109H225v3.52A112.63,112.63,0,0,1,112.5,225ZM116,185v32.91A105.6,105.6,0,0,0,217.91,116H185A72.69,72.69,0,0,1,116,185Z" fill="#175d9d"/><path d="M46.94,116H0V112.5A112.63,112.63,0,0,1,112.5,0H116V46.94H112.5A65.63,65.63,0,0,0,46.94,112.5ZM7.09,109H40a72.69,72.69,0,0,1,69-69V7.09A105.6,105.6,0,0,0,7.09,109Z" fill="#175d9d"/><path d="M116,225H112.5A112.63,112.63,0,0,1,0,112.5V109H46.94v3.52a65.63,65.63,0,0,0,65.56,65.56H116ZM7.09,116A105.6,105.6,0,0,0,109,217.91V185a72.69,72.69,0,0,1-69-69Z" fill="#175d9d"/><path d="M225,116H178.06V112.5A65.63,65.63,0,0,0,112.5,46.94H109V0h3.52A112.63,112.63,0,0,1,225,112.5Zm-40-7h32.9A105.6,105.6,0,0,0,116,7.09V40A72.69,72.69,0,0,1,185,109Z" fill="#175d9d"/><path d="M112.5,181.58a69.08,69.08,0,1,1,69.08-69.08A69.15,69.15,0,0,1,112.5,181.58Z" fill="#e6eef6"/><path d="M112.5,185.09a72.59,72.59,0,1,1,72.59-72.59A72.67,72.67,0,0,1,112.5,185.09Zm0-138.15a65.56,65.56,0,1,0,65.56,65.56A65.63,65.63,0,0,0,112.5,46.94Z" fill="#175d9d"/><path d="M110.61,111.81l41.73,17.44a45.23,45.23,0,1,0-37.07,27.57c1.47-.15,2.92-.39,4.35-.67Z" fill="#f39638"/><polygon points="101.03 101.28 117 171.35 134.01 141.43 166.66 130.54 101.03 101.28" fill="#e74a23"/><line x1="46.23" y1="51.2" x2="51.2" y2="46.23" fill="#e6eef6"/><rect x="45.2" y="45.2" width="7.03" height="7.03" transform="translate(-20.18 48.7) rotate(-44.99)" fill="#175d9d"/><line x1="173.8" y1="178.77" x2="178.77" y2="173.8" fill="#e6eef6"/><rect x="172.77" y="172.77" width="7.03" height="7.03" transform="translate(-73.02 176.24) rotate(-44.99)" fill="#175d9d"/><line x1="173.78" y1="46.2" x2="178.75" y2="51.17" fill="#e6eef6"/><rect x="172.75" y="45.17" width="7.03" height="7.03" transform="translate(17.2 138.9) rotate(-45)" fill="#175d9d"/><line x1="46.25" y1="173.83" x2="51.22" y2="178.8" fill="#e6eef6"/><rect x="45.22" y="172.8" width="7.03" height="7.03" transform="translate(-110.4 86.1) rotate(-45)" fill="#175d9d"/></svg>