<svg xmlns="http://www.w3.org/2000/svg" viewBox="0 0 210.02 210"><defs><style>.cls-1{fill:#e74a23;}.cls-2{fill:#175d9d;}.cls-3{fill:#457db1;}.cls-4{fill:#f39638;}</style></defs><title>t-my-team</title><g id="Warstwa_2" data-name="Warstwa 2"><g id="page_1_-home" data-name="page 1 -home"><g id="str_1" data-name="str 1"><g id="ikony"><path class="cls-1" d="M81.9,62.82c7.19,11.13-4.66,23-15.79,15.79A6.12,6.12,0,0,1,64.3,76.8C57.12,65.67,69,53.82,80.09,61A6.12,6.12,0,0,1,81.9,62.82Z"/><path class="cls-1" d="M73.1,113.24A31.82,31.82,0,0,0,98.19,101,26.81,26.81,0,0,0,48,101,31.82,31.82,0,0,0,73.1,113.24Z"/><path class="cls-2" d="M73.1,116.52a35.19,35.19,0,1,1,35.19-35.19A35.23,35.23,0,0,1,73.1,116.52Zm0-63.81a28.63,28.63,0,1,0,28.62,28.63A28.66,28.66,0,0,0,73.1,52.71Z"/><path class="cls-3" d="M145.72,62.82c7.19,11.13-4.66,23-15.79,15.79a6.12,6.12,0,0,1-1.81-1.81c-7.19-11.13,4.66-23,15.79-15.79A6.12,6.12,0,0,1,145.72,62.82Z"/><path class="cls-3" d="M136.92,113.24A31.82,31.82,0,0,0,162,101a26.81,26.81,0,0,0-50.18,0A31.82,31.82,0,0,0,136.92,113.24Z"/><path class="cls-2" d="M136.92,116.52a35.19,35.19,0,1,1,35.19-35.19A35.23,35.23,0,0,1,136.92,116.52Zm0-63.81a28.63,28.63,0,1,0,28.63,28.63A28.66,28.66,0,0,0,136.92,52.71Z"/><path class="cls-4" d="M113.81,118.37c7.19,11.13-4.66,23-15.79,15.79a6.12,6.12,0,0,1-1.81-1.81c-7.19-11.13,4.66-23,15.79-15.79A6.12,6.12,0,0,1,113.81,118.37Z"/><path class="cls-4" d="M105,168.79a31.82,31.82,0,0,0,25.09-12.24,26.81,26.81,0,0,0-50.18,0A31.82,31.82,0,0,0,105,168.79Z"/><path class="cls-2" d="M105,172.07a35.19,35.19,0,1,1,35.19-35.19A35.23,35.23,0,0,1,105,172.07Zm0-63.81a28.63,28.63,0,1,0,28.62,28.63A28.66,28.66,0,0,0,105,108.26Z"/><polygon class="cls-2" points="185.98 42.22 159.06 42.22 159.06 35.65 179.41 35.66 179.41 15.31 185.97 15.3 185.98 42.22"/><polygon class="cls-2" points="23.71 194.64 23.71 167.72 50.62 167.72 50.62 174.29 30.27 174.29 30.28 194.63 23.71 194.64"/><path class="cls-2" d="M18.46,164.5c-1.29-1.87-2.52-3.79-3.66-5.71l5.64-3.36q1.61,2.71,3.43,5.35Zm-6.95-11.63c-1-2-2-4.07-2.9-6.13l6-2.61q1.25,2.9,2.71,5.74ZM6.12,140.45C5.36,138.31,4.65,136.14,4,134l6.31-1.8q.87,3,1.95,6Zm-3.74-13c-.48-2.22-.9-4.46-1.23-6.67l6.49-1q.47,3.13,1.15,6.24ZM.36,114q-.29-3.38-.36-6.77l6.56-.13q.06,3.17.33,6.34Zm6.28-13.25-6.56-.29c.1-2.25.27-4.52.52-6.76l6.53.71Q6.77,97.61,6.63,100.78ZM8,88.16,1.54,87c.39-2.25.86-4.48,1.38-6.64l6.38,1.55Q8.54,85,8,88.16Zm3-12.34L4.71,73.87q1-3.23,2.21-6.4L13,69.81Q11.92,72.78,11,75.82ZM15.5,64l-6-2.73c.93-2,1.95-4.08,3-6.07l5.78,3.11Q16.82,61.07,15.5,64Zm6-11.18L15.95,49.3c1.19-1.91,2.46-3.81,3.78-5.63L25,47.51Q23.19,50.09,21.52,52.78Zm7.4-10.3-5.07-4.17q2.14-2.6,4.47-5.09l4.79,4.49Q30.93,40,28.92,42.48Zm8.68-9.26-4.49-4.78,1-.9,4.42,4.85Z"/><path class="cls-2" d="M177.16,38.14A98.57,98.57,0,0,0,38,32.68l-4.46-4.82A105.15,105.15,0,0,1,182,33.68Z"/><path class="cls-2" d="M176,182.43l-4.44-4.84.86-.8,4.49,4.78Zm5.71-5.64-4.79-4.49q2.18-2.32,4.19-4.77l5.07,4.17C184.73,173.45,183.23,175.17,181.7,176.8Zm8.6-10.45L185,162.51q1.86-2.59,3.54-5.27l5.56,3.48C192.87,162.64,191.6,164.53,190.3,166.34Zm7.18-11.48-5.78-3.11q1.51-2.8,2.83-5.68l6,2.73C199.56,150.83,198.55,152.87,197.48,154.86Zm5.63-12.31L197,140.21q1.13-3,2.07-6l6.27,1.94Q204.32,139.38,203.11,142.54Zm4-12.92-6.38-1.55q.75-3.09,1.29-6.22l6.47,1.13C208.1,125.23,207.63,127.47,207.11,129.62Zm2.32-13.34-6.53-.71q.35-3.15.48-6.33l6.56.29C209.85,111.77,209.67,114,209.43,116.28Zm-6-13.4q-.06-3.17-.33-6.34l6.54-.56q.29,3.38.36,6.77Zm-1.08-12.65q-.47-3.13-1.15-6.24l6.41-1.4c.48,2.22.9,4.46,1.23,6.67Zm-2.71-12.4q-.87-3-1.95-6l6.18-2.22c.77,2.14,1.47,4.31,2.08,6.45Zm-4.29-11.95q-1.25-2.9-2.71-5.74l5.84-3c1,2,2,4.07,2.9,6.13Zm-5.8-11.3q-1.61-2.71-3.43-5.35l5.41-3.72c1.29,1.87,2.52,3.79,3.66,5.71Z"/><path class="cls-2" d="M105,210q-2.11,0-4.22-.08a104.33,104.33,0,0,1-73-33.65l4.82-4.46a98.46,98.46,0,0,0,139.14,5.46l4.46,4.82A104.27,104.27,0,0,1,105,210Z"/></g></g></g></g></svg>