<svg xmlns="http://www.w3.org/2000/svg" viewBox="0 0 200 231"><defs><style>.cls-1{fill:#175d9d;}.cls-2{fill:#e6eef6;}.cls-3{fill:#f39638;}.cls-4{fill:#f4f7fa;}.cls-5{fill:#e74a23;}.cls-6{fill:#8fb1d0;}</style></defs><title>t-org-chart</title><g id="Warstwa_2" data-name="Warstwa 2"><g id="page_1_-home" data-name="page 1 -home"><g id="str_1" data-name="str 1"><g id="ikony"><polygon class="cls-1" points="42.76 179.97 37.91 179.97 37.91 159.27 151.76 159.27 151.76 131.72 156.62 131.72 156.62 164.12 42.76 164.12 42.76 179.97"/><line class="cls-2" x1="29.01" y1="47.65" x2="29.01" y2="41.97"/><rect class="cls-1" x="26.17" y="41.97" width="5.68" height="5.68"/><line class="cls-2" x1="42.66" y1="47.65" x2="42.66" y2="41.97"/><rect class="cls-1" x="39.82" y="41.97" width="5.68" height="5.68"/><line class="cls-2" x1="56.31" y1="47.65" x2="56.31" y2="41.97"/><rect class="cls-1" x="53.47" y="41.97" width="5.68" height="5.68"/><line class="cls-2" x1="69.96" y1="47.65" x2="69.96" y2="41.97"/><rect class="cls-1" x="67.12" y="41.97" width="5.68" height="5.68"/><line class="cls-2" x1="83.61" y1="47.65" x2="83.61" y2="41.97"/><rect class="cls-1" x="80.77" y="41.97" width="5.68" height="5.68"/><line class="cls-2" x1="97.26" y1="47.65" x2="97.26" y2="41.97"/><rect class="cls-1" x="94.42" y="41.97" width="5.68" height="5.68"/><path class="cls-1" d="M109.13,27.6H85.39V11.87a11.87,11.87,0,1,1,23.74,0ZM91.08,21.92h12.37v-10a6.18,6.18,0,1,0-12.37,0Z"/><polygon class="cls-1" points="182.64 139.84 11.88 139.84 11.88 134.15 176.96 134.15 176.96 27.6 17.56 27.6 17.56 140 11.88 140 11.88 21.92 182.64 21.92 182.64 139.84"/><path class="cls-3" d="M112.64,114.31h56.8A27.71,27.71,0,0,1,197.16,142v7.1a0,0,0,0,1,0,0H86.46a0,0,0,0,1,0,0V140.5A26.18,26.18,0,0,1,112.64,114.31Z"/><path class="cls-1" d="M200,152H83.61v-9.24a31.3,31.3,0,0,1,31.26-31.26h53.86A31.3,31.3,0,0,1,200,142.73ZM89.3,146.29h105v-3.55a25.61,25.61,0,0,0-25.58-25.58H114.88A25.61,25.61,0,0,0,89.3,142.73Z"/><polygon class="cls-4" points="157.41 97.7 157.41 91.48 126.38 91.48 126.38 97.98 117.31 113.83 142.08 136.18 167.11 113.83 157.41 97.7"/><path class="cls-1" d="M142.07,140,113.7,114.41l9.83-17.18V88.64h36.71v8.27l10.51,17.48Zm-21.16-26.74,21.18,19.11,21.37-19.08-8.89-14.79V94.32H129.22v4.42Z"/><path class="cls-4" d="M164.61,79.71c0,15.36-10.05,27.81-22.46,27.81s-22.46-12.45-22.46-27.81c0-5.59-1.54-16.52.75-20.88,4-7.62,13.81-6.93,21.7-6.93,8.58,0,19.88-.42,23.66,8.33C167.5,64.13,164.61,75,164.61,79.71Z"/><path class="cls-1" d="M142.15,110.36c-14,0-25.3-13.75-25.3-30.65,0-1.42-.11-3.2-.22-5.13-.36-6.17-.76-13.16,1.3-17.07C122.38,49,132.42,49,138.43,49l3.72,0h2.33c7.33,0,19.6,0,23.95,10.05,1.4,3.25.57,8.8-.23,14.18a53.38,53.38,0,0,0-.74,6.42C167.45,96.61,156.1,110.36,142.15,110.36Zm-3.72-55.63c-8,0-13.08.89-15.47,5.43-1.32,2.52-.92,9.49-.66,14.1.12,2.05.23,3.94.23,5.46,0,13.77,8.8,25,19.62,25s19.62-11.2,19.62-25a55.83,55.83,0,0,1,.8-7.27c.56-3.71,1.39-9.32.64-11.08-2.64-6.12-10.36-6.62-18.73-6.62h-2.33Z"/><path class="cls-2" d="M168.86,53.9C168.64,47.73,162,46,162,46c1.29-5.31-2.8-6.53-2.8-6.53-10.84-2-27.79-.49-27.79-.49-14.36.37-16.2,13.12-16.62,14.36a17.08,17.08,0,0,0-.17,2.92h0v0c0,1.12,0,2.46,0,3.86V70.79l4.94,6.87s1.78-25.27,28.19-25.74c0,0,3.13,13.41,16,14.9l1.09.64-.18,10.2c-.07-3.81,4.24-7.82,4.24-7.82C169.29,66,168.86,53.9,168.86,53.9Z"/><path class="cls-1" d="M121.75,85.65l-10-13.95V60.13c0-1.39,0-2.75,0-3.89a12.94,12.94,0,0,1,.33-3.82l.07-.29c3.33-13.57,13.44-15.84,19.17-16,.07,0,6.15-.55,13.44-.55a84.66,84.66,0,0,1,14.94,1.09l.29.07a7.48,7.48,0,0,1,5.08,7.43c2.61,1.29,6.45,4.12,6.64,9.62,0,.5.43,12.31,0,16.35l-.12,1-.77.72c-1.22,1.15-3.2,3.65-3.32,5.48v.31h-5.68q0-.26,0-.52l.14-7.77c-10.31-1.89-14.71-10.4-16.26-14.57-21.44,1.63-23.25,22.11-23.32,23Zm-4.34-15.77.69,1c2.61-8.28,9.86-21.4,29.55-21.75l2.3,0,.52,2.24c.11.46,2.88,11.49,13.57,12.72l.6.07,1.57.92c0-3.88-.11-8.77-.19-11-.14-4-4.71-5.24-4.76-5.25l-2.71-.7.66-2.72c.56-2.32-.42-3-.76-3.1a80.29,80.29,0,0,0-13.7-1c-7,0-13.05.53-13.11.54-7.58.2-12.1,4-14,11.67-.08.34-.15.59-.2.74a14,14,0,0,1,0,2.07c0,1.12,0,2.44,0,3.81Z"/><rect class="cls-5" x="57.87" y="41.81" width="9.89" height="68.89" transform="translate(139.07 13.44) rotate(90)"/><rect class="cls-5" x="51.26" y="65.94" width="9.89" height="55.68" transform="translate(149.99 37.58) rotate(90)"/><rect class="cls-5" x="40.24" y="94.49" width="9.89" height="33.64" transform="translate(156.5 66.12) rotate(90)"/><path class="cls-1" d="M80.66,231H0V177.55H80.66ZM4.85,226.15h71V182.4h-71Z"/><path class="cls-1" d="M194.52,231H113.86V177.55h80.66Zm-75.81-4.85h71V182.4h-71Z"/><rect class="cls-1" x="151.77" y="161.7" width="4.85" height="18.27"/><rect class="cls-6" x="125.02" y="187.84" width="58.4" height="31.88"/><rect class="cls-6" x="42.66" y="187.75" width="24.15" height="31.88"/><rect class="cls-6" x="13.82" y="187.75" width="24.15" height="31.88"/></g></g></g></g></svg>