<svg xmlns="http://www.w3.org/2000/svg" viewBox="0 0 223.49 220"><title>t-workers-comparison</title><rect x="93.2" width="37.1" height="140.47" fill="#e74a23"/><line x1="102.13" y1="21.65" x2="121.36" y2="21.65" fill="#f4f7fa"/><rect x="102.13" y="18.16" width="19.23" height="6.98" fill="#f4f7fa"/><line x1="102.13" y1="43.3" x2="121.36" y2="43.3" fill="#f4f7fa"/><rect x="102.13" y="39.81" width="19.23" height="6.98" fill="#f4f7fa"/><line x1="102.13" y1="64.95" x2="121.36" y2="64.95" fill="#f4f7fa"/><rect x="102.13" y="61.46" width="19.23" height="6.98" fill="#f4f7fa"/><line x1="102.13" y1="86.6" x2="121.36" y2="86.6" fill="#f4f7fa"/><rect x="102.13" y="83.11" width="19.23" height="6.98" fill="#f4f7fa"/><line x1="102.13" y1="108.25" x2="121.36" y2="108.25" fill="#f4f7fa"/><rect x="102.13" y="104.76" width="19.23" height="6.98" fill="#f4f7fa"/><rect x="15.83" y="70.84" width="37.1" height="69.63" fill="#e74a23"/><line x1="24.77" y1="86.6" x2="44" y2="86.6" fill="#f4f7fa"/><rect x="24.77" y="83.11" width="19.23" height="6.98" fill="#f4f7fa"/><line x1="24.77" y1="108.25" x2="44" y2="108.25" fill="#f4f7fa"/><rect x="24.77" y="104.76" width="19.23" height="6.98" fill="#f4f7fa"/><rect x="170.56" y="48.45" width="37.1" height="92.03" fill="#e74a23"/><line x1="179.49" y1="64.95" x2="198.73" y2="64.95" fill="#f4f7fa"/><rect x="179.49" y="61.46" width="19.23" height="6.98" fill="#f4f7fa"/><line x1="179.49" y1="86.6" x2="198.73" y2="86.6" fill="#f4f7fa"/><rect x="179.49" y="83.11" width="19.23" height="6.98" fill="#f4f7fa"/><line x1="179.49" y1="108.25" x2="198.73" y2="108.25" fill="#f4f7fa"/><rect x="179.49" y="104.76" width="19.23" height="6.98" fill="#f4f7fa"/><path d="M8.49,171.72H60.27a5,5,0,0,1,5,5v39.78a0,0,0,0,1,0,0H3.49a0,0,0,0,1,0,0V176.72A5,5,0,0,1,8.49,171.72Z" fill="#f4f7fa"/><path d="M68.77,220H0V189.18a21,21,0,0,1,21-21H47.81a21,21,0,0,1,21,21ZM7,213h54.8V189.18a14,14,0,0,0-14-14H21a14,14,0,0,0-14,14Z" fill="#175d9d"/><path d="M27,177.19H42.81a0,0,0,0,1,0,0V211a0,0,0,0,1,0,0H27a1,1,0,0,1-1-1V178.19A1,1,0,0,1,27,177.19Z" transform="translate(228.5 159.73) rotate(90)" fill="#8fb1d0"/><path d="M48.78,130c10.42,17.27-7.58,35.27-24.85,24.85A11.66,11.66,0,0,1,20,150.93c-10.42-17.27,7.58-35.27,24.85-24.85A11.66,11.66,0,0,1,48.78,130Z" fill="#f4f7fa"/><path d="M34.38,161.44a21,21,0,1,1,21-21A21,21,0,0,1,34.38,161.44Zm0-34.95a14,14,0,1,0,14,14A14,14,0,0,0,34.38,126.49Z" fill="#175d9d"/><path d="M85.86,171.72h51.78a5,5,0,0,1,5,5v39.78a0,0,0,0,1,0,0H80.86a0,0,0,0,1,0,0V176.72A5,5,0,0,1,85.86,171.72Z" fill="#f4f7fa"/><path d="M146.13,220H77.36V189.18a21,21,0,0,1,21-21h26.86a21,21,0,0,1,21,21Zm-61.78-7h54.8V189.18a14,14,0,0,0-14-14H98.32a14,14,0,0,0-14,14Z" fill="#175d9d"/><path d="M104.32,177.19h15.85a0,0,0,0,1,0,0V211a0,0,0,0,1,0,0H104.32a1,1,0,0,1-1-1V178.19A1,1,0,0,1,104.32,177.19Z" transform="translate(305.86 82.37) rotate(90)" fill="#f39638"/><path d="M126.14,130c10.42,17.27-7.58,35.27-24.85,24.85a11.66,11.66,0,0,1-3.94-3.94c-10.42-17.27,7.58-35.27,24.85-24.85A11.66,11.66,0,0,1,126.14,130Z" fill="#f4f7fa"/><path d="M111.75,161.44a21,21,0,1,1,21-21A21,21,0,0,1,111.75,161.44Zm0-34.95a14,14,0,1,0,14,14A14,14,0,0,0,111.75,126.49Z" fill="#175d9d"/><path d="M163.22,171.72H215a5,5,0,0,1,5,5v39.78a0,0,0,0,1,0,0H158.22a0,0,0,0,1,0,0V176.72A5,5,0,0,1,163.22,171.72Z" fill="#f4f7fa"/><path d="M223.49,220H154.73V189.18a21,21,0,0,1,21-21h26.86a21,21,0,0,1,21,21Zm-61.78-7h54.8V189.18a14,14,0,0,0-14-14H175.68a14,14,0,0,0-14,14Z" fill="#175d9d"/><path d="M181.68,177.19h15.85a0,0,0,0,1,0,0V211a0,0,0,0,1,0,0H181.68a1,1,0,0,1-1-1V178.19A1,1,0,0,1,181.68,177.19Z" transform="translate(383.22 5.01) rotate(90)" fill="#8fb1d0"/><path d="M203.51,130c10.42,17.27-7.58,35.27-24.85,24.85a11.66,11.66,0,0,1-3.94-3.94c-10.42-17.27,7.58-35.27,24.85-24.85A11.66,11.66,0,0,1,203.51,130Z" fill="#f4f7fa"/><path d="M189.11,161.44a21,21,0,1,1,21-21A21,21,0,0,1,189.11,161.44Zm0-34.95a14,14,0,1,0,14,14A14,14,0,0,0,189.11,126.49Z" fill="#175d9d"/><line x1="146.94" y1="48.45" x2="153.92" y2="48.45" fill="#f4f7fa"/><rect x="146.94" y="44.95" width="6.98" height="6.98" fill="#175d9d"/><line x1="146.94" y1="70.84" x2="153.92" y2="70.84" fill="#f4f7fa"/><rect x="146.94" y="67.35" width="6.98" height="6.98" fill="#175d9d"/><line x1="146.94" y1="93.24" x2="153.92" y2="93.24" fill="#f4f7fa"/><rect x="146.94" y="89.74" width="6.98" height="6.98" fill="#175d9d"/><line x1="69.57" y1="48.45" x2="76.56" y2="48.45" fill="#f4f7fa"/><rect x="69.57" y="44.95" width="6.98" height="6.98" fill="#175d9d"/><line x1="69.57" y1="70.84" x2="76.56" y2="70.84" fill="#f4f7fa"/><rect x="69.57" y="67.35" width="6.98" height="6.98" fill="#175d9d"/><line x1="69.57" y1="93.24" x2="76.56" y2="93.24" fill="#f4f7fa"/><rect x="69.57" y="89.74" width="6.98" height="6.98" fill="#175d9d"/></svg>